%TF.GenerationSoftware,KiCad,Pcbnew,10.0.0*%
%TF.CreationDate,2026-04-22T23:56:42-04:00*%
%TF.ProjectId,PCBDesign,50434244-6573-4696-976e-2e6b69636164,rev?*%
%TF.SameCoordinates,Original*%
%TF.FileFunction,Soldermask,Bot*%
%TF.FilePolarity,Negative*%
%FSLAX46Y46*%
G04 Gerber Fmt 4.6, Leading zero omitted, Abs format (unit mm)*
G04 Created by KiCad (PCBNEW 10.0.0) date 2026-04-22 23:56:42*
%MOMM*%
%LPD*%
G01*
G04 APERTURE LIST*
G04 Aperture macros list*
%AMRoundRect*
0 Rectangle with rounded corners*
0 $1 Rounding radius*
0 $2 $3 $4 $5 $6 $7 $8 $9 X,Y pos of 4 corners*
0 Add a 4 corners polygon primitive as box body*
4,1,4,$2,$3,$4,$5,$6,$7,$8,$9,$2,$3,0*
0 Add four circle primitives for the rounded corners*
1,1,$1+$1,$2,$3*
1,1,$1+$1,$4,$5*
1,1,$1+$1,$6,$7*
1,1,$1+$1,$8,$9*
0 Add four rect primitives between the rounded corners*
20,1,$1+$1,$2,$3,$4,$5,0*
20,1,$1+$1,$4,$5,$6,$7,0*
20,1,$1+$1,$6,$7,$8,$9,0*
20,1,$1+$1,$8,$9,$2,$3,0*%
G04 Aperture macros list end*
%ADD10C,1.600000*%
%ADD11RoundRect,0.250000X-0.550000X-0.550000X0.550000X-0.550000X0.550000X0.550000X-0.550000X0.550000X0*%
%ADD12O,2.800000X1.800000*%
%ADD13R,0.850000X0.850000*%
%ADD14R,2.000000X1.905000*%
%ADD15O,2.000000X1.905000*%
%ADD16RoundRect,0.250000X0.550000X-0.550000X0.550000X0.550000X-0.550000X0.550000X-0.550000X-0.550000X0*%
%ADD17RoundRect,0.250000X-0.550000X0.950000X-0.550000X-0.950000X0.550000X-0.950000X0.550000X0.950000X0*%
%ADD18O,1.600000X2.400000*%
%ADD19RoundRect,0.250000X-0.550000X0.550000X-0.550000X-0.550000X0.550000X-0.550000X0.550000X0.550000X0*%
%ADD20R,1.700000X1.700000*%
%ADD21C,1.700000*%
%ADD22RoundRect,0.875000X-0.875000X-0.875000X0.875000X-0.875000X0.875000X0.875000X-0.875000X0.875000X0*%
%ADD23RoundRect,0.750000X-0.750000X-1.000000X0.750000X-1.000000X0.750000X1.000000X-0.750000X1.000000X0*%
%ADD24R,3.500000X3.500000*%
G04 APERTURE END LIST*
D10*
%TO.C,U9*%
X225545000Y-98465000D03*
X225545000Y-101005000D03*
X225545000Y-103545000D03*
X225545000Y-106085000D03*
X217925000Y-106085000D03*
X217925000Y-103545000D03*
X217925000Y-101005000D03*
D11*
X217925000Y-98465000D03*
%TD*%
D10*
%TO.C,U16*%
X118000000Y-94000000D03*
X118000000Y-96540000D03*
X118000000Y-99080000D03*
X118000000Y-101620000D03*
X110380000Y-101620000D03*
X110380000Y-99080000D03*
X110380000Y-96540000D03*
D11*
X110380000Y-94000000D03*
%TD*%
%TO.C,U17*%
X74500000Y-56000000D03*
D10*
X74500000Y-58540000D03*
X74500000Y-61080000D03*
X74500000Y-63620000D03*
X82120000Y-63620000D03*
X82120000Y-61080000D03*
X82120000Y-58540000D03*
X82120000Y-56000000D03*
%TD*%
D11*
%TO.C,U22*%
X110380000Y-71960000D03*
D10*
X110380000Y-74500000D03*
X110380000Y-77040000D03*
X110380000Y-79580000D03*
X118000000Y-79580000D03*
X118000000Y-77040000D03*
X118000000Y-74500000D03*
X118000000Y-71960000D03*
%TD*%
D11*
%TO.C,U21*%
X109880000Y-55500000D03*
D10*
X109880000Y-58040000D03*
X109880000Y-60580000D03*
X109880000Y-63120000D03*
X117500000Y-63120000D03*
X117500000Y-60580000D03*
X117500000Y-58040000D03*
X117500000Y-55500000D03*
%TD*%
D11*
%TO.C,U19*%
X98380000Y-55460000D03*
D10*
X98380000Y-58000000D03*
X98380000Y-60540000D03*
X98380000Y-63080000D03*
X106000000Y-63080000D03*
X106000000Y-60540000D03*
X106000000Y-58000000D03*
X106000000Y-55460000D03*
%TD*%
D11*
%TO.C,U18*%
X86695000Y-55420000D03*
D10*
X86695000Y-57960000D03*
X86695000Y-60500000D03*
X86695000Y-63040000D03*
X94315000Y-63040000D03*
X94315000Y-60500000D03*
X94315000Y-57960000D03*
X94315000Y-55420000D03*
%TD*%
D12*
%TO.C,J8*%
X75500000Y-83500000D03*
X73500000Y-75600000D03*
X75500000Y-78000000D03*
%TD*%
D10*
%TO.C,U1*%
X171850000Y-56735000D03*
X171850000Y-59275000D03*
X171850000Y-61815000D03*
X171850000Y-64355000D03*
X171850000Y-66895000D03*
X171850000Y-69435000D03*
X171850000Y-71975000D03*
X164230000Y-71975000D03*
X164230000Y-69435000D03*
X164230000Y-66895000D03*
X164230000Y-64355000D03*
X164230000Y-61815000D03*
X164230000Y-59275000D03*
D11*
X164230000Y-56735000D03*
%TD*%
%TO.C,U20*%
X96880000Y-73500000D03*
D10*
X96880000Y-76040000D03*
X96880000Y-78580000D03*
X96880000Y-81120000D03*
X104500000Y-81120000D03*
X104500000Y-78580000D03*
X104500000Y-76040000D03*
X104500000Y-73500000D03*
%TD*%
D13*
%TO.C,J10*%
X114500000Y-88500000D03*
%TD*%
%TO.C,J7*%
X185000000Y-71000000D03*
%TD*%
D11*
%TO.C,U13*%
X215925000Y-55775000D03*
D10*
X215925000Y-58315000D03*
X215925000Y-60855000D03*
X215925000Y-63395000D03*
X223545000Y-63395000D03*
X223545000Y-60855000D03*
X223545000Y-58315000D03*
X223545000Y-55775000D03*
%TD*%
D11*
%TO.C,U12*%
X216110000Y-69775000D03*
D10*
X216110000Y-72315000D03*
X216110000Y-74855000D03*
X216110000Y-77395000D03*
X223730000Y-77395000D03*
X223730000Y-74855000D03*
X223730000Y-72315000D03*
X223730000Y-69775000D03*
%TD*%
D14*
%TO.C,Q1*%
X174730000Y-85855000D03*
D15*
X174730000Y-83315000D03*
X174730000Y-80775000D03*
%TD*%
D14*
%TO.C,Q2*%
X172590000Y-92965000D03*
D15*
X172590000Y-95505000D03*
X172590000Y-98045000D03*
%TD*%
D11*
%TO.C,U2*%
X146110000Y-56695000D03*
D10*
X146110000Y-59235000D03*
X146110000Y-61775000D03*
X146110000Y-64315000D03*
X153730000Y-64315000D03*
X153730000Y-61775000D03*
X153730000Y-59235000D03*
X153730000Y-56695000D03*
%TD*%
D16*
%TO.C,U6*%
X127420000Y-62580000D03*
D10*
X129960000Y-62580000D03*
X132500000Y-62580000D03*
X135040000Y-62580000D03*
X135040000Y-54960000D03*
X132500000Y-54960000D03*
X129960000Y-54960000D03*
X127420000Y-54960000D03*
%TD*%
D11*
%TO.C,U3*%
X201740000Y-57965000D03*
D10*
X201740000Y-60505000D03*
X201740000Y-63045000D03*
X201740000Y-65585000D03*
X209360000Y-65585000D03*
X209360000Y-63045000D03*
X209360000Y-60505000D03*
X209360000Y-57965000D03*
%TD*%
D13*
%TO.C,J6*%
X233230000Y-75275000D03*
%TD*%
D17*
%TO.C,U8*%
X165540000Y-88965000D03*
D18*
X163000000Y-88965000D03*
X160460000Y-88965000D03*
X157920000Y-88965000D03*
X157920000Y-96585000D03*
X160460000Y-96585000D03*
X163000000Y-96585000D03*
X165540000Y-96585000D03*
%TD*%
D13*
%TO.C,J3*%
X179230000Y-54775000D03*
%TD*%
D11*
%TO.C,U7*%
X146110000Y-70275000D03*
D10*
X146110000Y-72815000D03*
X146110000Y-75355000D03*
X146110000Y-77895000D03*
X153730000Y-77895000D03*
X153730000Y-75355000D03*
X153730000Y-72815000D03*
X153730000Y-70275000D03*
%TD*%
D11*
%TO.C,U14*%
X229730000Y-55775000D03*
D10*
X229730000Y-58315000D03*
X229730000Y-60855000D03*
X229730000Y-63395000D03*
X237350000Y-63395000D03*
X237350000Y-60855000D03*
X237350000Y-58315000D03*
X237350000Y-55775000D03*
%TD*%
D19*
%TO.C,U5*%
X135040000Y-70470000D03*
D10*
X132500000Y-70470000D03*
X129960000Y-70470000D03*
X127420000Y-70470000D03*
X127420000Y-78090000D03*
X129960000Y-78090000D03*
X132500000Y-78090000D03*
X135040000Y-78090000D03*
%TD*%
D13*
%TO.C,J4*%
X157730000Y-66775000D03*
%TD*%
D11*
%TO.C,U10*%
X216425000Y-83465000D03*
D10*
X216425000Y-86005000D03*
X216425000Y-88545000D03*
X216425000Y-91085000D03*
X224045000Y-91085000D03*
X224045000Y-88545000D03*
X224045000Y-86005000D03*
X224045000Y-83465000D03*
%TD*%
D11*
%TO.C,U4*%
X185425000Y-57965000D03*
D10*
X185425000Y-60505000D03*
X185425000Y-63045000D03*
X185425000Y-65585000D03*
X193045000Y-65585000D03*
X193045000Y-63045000D03*
X193045000Y-60505000D03*
X193045000Y-57965000D03*
%TD*%
D11*
%TO.C,U11*%
X195730000Y-78735000D03*
D10*
X195730000Y-81275000D03*
X195730000Y-83815000D03*
X195730000Y-86355000D03*
X195730000Y-88895000D03*
X195730000Y-91435000D03*
X195730000Y-93975000D03*
X203350000Y-93975000D03*
X203350000Y-91435000D03*
X203350000Y-88895000D03*
X203350000Y-86355000D03*
X203350000Y-83815000D03*
X203350000Y-81275000D03*
X203350000Y-78735000D03*
%TD*%
D13*
%TO.C,J5*%
X233230000Y-81275000D03*
%TD*%
D20*
%TO.C,J1*%
X158610000Y-106275000D03*
D21*
X158610000Y-103735000D03*
X161150000Y-106275000D03*
X161150000Y-103735000D03*
X163690000Y-106275000D03*
X163690000Y-103735000D03*
X166230000Y-106275000D03*
X166230000Y-103735000D03*
X168770000Y-106275000D03*
X168770000Y-103735000D03*
X171310000Y-106275000D03*
X171310000Y-103735000D03*
X173850000Y-106275000D03*
X173850000Y-103735000D03*
X176390000Y-106275000D03*
X176390000Y-103735000D03*
X178930000Y-106275000D03*
X178930000Y-103735000D03*
X181470000Y-106275000D03*
X181470000Y-103735000D03*
X184010000Y-106275000D03*
X184010000Y-103735000D03*
X186550000Y-106275000D03*
X186550000Y-103735000D03*
X189090000Y-106275000D03*
X189090000Y-103735000D03*
X191630000Y-106275000D03*
X191630000Y-103735000D03*
X194170000Y-106275000D03*
X194170000Y-103735000D03*
X196710000Y-106275000D03*
X196710000Y-103735000D03*
X199250000Y-106275000D03*
X199250000Y-103735000D03*
X201790000Y-106275000D03*
X201790000Y-103735000D03*
X204330000Y-106275000D03*
X204330000Y-103735000D03*
X206870000Y-106275000D03*
X206870000Y-103735000D03*
%TD*%
D22*
%TO.C,J2*%
X135730000Y-100700000D03*
D23*
X132730000Y-96000000D03*
D24*
X138730000Y-96000000D03*
%TD*%
M02*
