%TF.GenerationSoftware,KiCad,Pcbnew,10.0.0*%
%TF.CreationDate,2026-04-22T23:56:41-04:00*%
%TF.ProjectId,PCBDesign,50434244-6573-4696-976e-2e6b69636164,rev?*%
%TF.SameCoordinates,Original*%
%TF.FileFunction,Copper,L1,Top*%
%TF.FilePolarity,Positive*%
%FSLAX46Y46*%
G04 Gerber Fmt 4.6, Leading zero omitted, Abs format (unit mm)*
G04 Created by KiCad (PCBNEW 10.0.0) date 2026-04-22 23:56:41*
%MOMM*%
%LPD*%
G01*
G04 APERTURE LIST*
G04 Aperture macros list*
%AMRoundRect*
0 Rectangle with rounded corners*
0 $1 Rounding radius*
0 $2 $3 $4 $5 $6 $7 $8 $9 X,Y pos of 4 corners*
0 Add a 4 corners polygon primitive as box body*
4,1,4,$2,$3,$4,$5,$6,$7,$8,$9,$2,$3,0*
0 Add four circle primitives for the rounded corners*
1,1,$1+$1,$2,$3*
1,1,$1+$1,$4,$5*
1,1,$1+$1,$6,$7*
1,1,$1+$1,$8,$9*
0 Add four rect primitives between the rounded corners*
20,1,$1+$1,$2,$3,$4,$5,0*
20,1,$1+$1,$4,$5,$6,$7,0*
20,1,$1+$1,$6,$7,$8,$9,0*
20,1,$1+$1,$8,$9,$2,$3,0*%
G04 Aperture macros list end*
%TA.AperFunction,ComponentPad*%
%ADD10C,1.600000*%
%TD*%
%TA.AperFunction,ComponentPad*%
%ADD11RoundRect,0.250000X-0.550000X-0.550000X0.550000X-0.550000X0.550000X0.550000X-0.550000X0.550000X0*%
%TD*%
%TA.AperFunction,SMDPad,CuDef*%
%ADD12RoundRect,0.200000X0.275000X-0.200000X0.275000X0.200000X-0.275000X0.200000X-0.275000X-0.200000X0*%
%TD*%
%TA.AperFunction,SMDPad,CuDef*%
%ADD13RoundRect,0.200000X0.200000X0.275000X-0.200000X0.275000X-0.200000X-0.275000X0.200000X-0.275000X0*%
%TD*%
%TA.AperFunction,SMDPad,CuDef*%
%ADD14RoundRect,0.200000X-0.200000X-0.275000X0.200000X-0.275000X0.200000X0.275000X-0.200000X0.275000X0*%
%TD*%
%TA.AperFunction,ComponentPad*%
%ADD15O,2.800000X1.800000*%
%TD*%
%TA.AperFunction,SMDPad,CuDef*%
%ADD16RoundRect,0.200000X-0.275000X0.200000X-0.275000X-0.200000X0.275000X-0.200000X0.275000X0.200000X0*%
%TD*%
%TA.AperFunction,ComponentPad*%
%ADD17R,0.850000X0.850000*%
%TD*%
%TA.AperFunction,SMDPad,CuDef*%
%ADD18RoundRect,0.250000X1.050000X0.550000X-1.050000X0.550000X-1.050000X-0.550000X1.050000X-0.550000X0*%
%TD*%
%TA.AperFunction,SMDPad,CuDef*%
%ADD19RoundRect,0.250000X-1.050000X-0.550000X1.050000X-0.550000X1.050000X0.550000X-1.050000X0.550000X0*%
%TD*%
%TA.AperFunction,ComponentPad*%
%ADD20R,2.000000X1.905000*%
%TD*%
%TA.AperFunction,ComponentPad*%
%ADD21O,2.000000X1.905000*%
%TD*%
%TA.AperFunction,ComponentPad*%
%ADD22RoundRect,0.250000X0.550000X-0.550000X0.550000X0.550000X-0.550000X0.550000X-0.550000X-0.550000X0*%
%TD*%
%TA.AperFunction,SMDPad,CuDef*%
%ADD23RoundRect,0.225000X-0.250000X0.225000X-0.250000X-0.225000X0.250000X-0.225000X0.250000X0.225000X0*%
%TD*%
%TA.AperFunction,SMDPad,CuDef*%
%ADD24RoundRect,0.150000X0.200000X-0.150000X0.200000X0.150000X-0.200000X0.150000X-0.200000X-0.150000X0*%
%TD*%
%TA.AperFunction,ComponentPad*%
%ADD25RoundRect,0.250000X-0.550000X0.950000X-0.550000X-0.950000X0.550000X-0.950000X0.550000X0.950000X0*%
%TD*%
%TA.AperFunction,ComponentPad*%
%ADD26O,1.600000X2.400000*%
%TD*%
%TA.AperFunction,SMDPad,CuDef*%
%ADD27RoundRect,0.225000X0.250000X-0.225000X0.250000X0.225000X-0.250000X0.225000X-0.250000X-0.225000X0*%
%TD*%
%TA.AperFunction,ComponentPad*%
%ADD28RoundRect,0.250000X-0.550000X0.550000X-0.550000X-0.550000X0.550000X-0.550000X0.550000X0.550000X0*%
%TD*%
%TA.AperFunction,ComponentPad*%
%ADD29R,1.700000X1.700000*%
%TD*%
%TA.AperFunction,ComponentPad*%
%ADD30C,1.700000*%
%TD*%
%TA.AperFunction,ComponentPad*%
%ADD31RoundRect,0.875000X-0.875000X-0.875000X0.875000X-0.875000X0.875000X0.875000X-0.875000X0.875000X0*%
%TD*%
%TA.AperFunction,ComponentPad*%
%ADD32RoundRect,0.750000X-0.750000X-1.000000X0.750000X-1.000000X0.750000X1.000000X-0.750000X1.000000X0*%
%TD*%
%TA.AperFunction,ComponentPad*%
%ADD33R,3.500000X3.500000*%
%TD*%
%TA.AperFunction,ViaPad*%
%ADD34C,0.600000*%
%TD*%
%TA.AperFunction,Conductor*%
%ADD35C,0.200000*%
%TD*%
G04 APERTURE END LIST*
D10*
%TO.P,U9,8,NC_8*%
%TO.N,unconnected-(U9-NC-Pad8)*%
X225545000Y-98465000D03*
%TO.P,U9,7,V+_7*%
%TO.N,+12V*%
X225545000Y-101005000D03*
%TO.P,U9,6*%
%TO.N,Net-(R28-Pad2)*%
X225545000Y-103545000D03*
%TO.P,U9,5,NULL_5*%
%TO.N,unconnected-(U9-NULL-Pad5)*%
X225545000Y-106085000D03*
%TO.P,U9,4,V-_4*%
%TO.N,-12V*%
X217925000Y-106085000D03*
%TO.P,U9,3,+_3*%
%TO.N,Net-(U9-+)*%
X217925000Y-103545000D03*
%TO.P,U9,2,-_2*%
%TO.N,Net-(U9--)*%
X217925000Y-101005000D03*
D11*
%TO.P,U9,1,NULL_1*%
%TO.N,unconnected-(U9-NULL-Pad1)*%
X217925000Y-98465000D03*
%TD*%
D12*
%TO.P,R54,1*%
%TO.N,GND*%
X119000000Y-106825000D03*
%TO.P,R54,2*%
%TO.N,Net-(R54-Pad2)*%
X119000000Y-105175000D03*
%TD*%
D13*
%TO.P,R63,2*%
%TO.N,Net-(R61-Pad1)*%
X145175000Y-103000000D03*
%TO.P,R63,1*%
%TO.N,Net-(R63-Pad1)*%
X146825000Y-103000000D03*
%TD*%
%TO.P,R55,1*%
%TO.N,Net-(R55-Pad1)*%
X123650000Y-102500000D03*
%TO.P,R55,2*%
%TO.N,Net-(R54-Pad2)*%
X122000000Y-102500000D03*
%TD*%
D10*
%TO.P,U16,8,NC_8*%
%TO.N,unconnected-(U16-NC-Pad8)*%
X118000000Y-94000000D03*
%TO.P,U16,7,V+_7*%
%TO.N,+12V*%
X118000000Y-96540000D03*
%TO.P,U16,6*%
%TO.N,1.65V*%
X118000000Y-99080000D03*
%TO.P,U16,5,NULL_5*%
%TO.N,unconnected-(U16-NULL-Pad5)*%
X118000000Y-101620000D03*
%TO.P,U16,4,V-_4*%
%TO.N,-12V*%
X110380000Y-101620000D03*
%TO.P,U16,3,+_3*%
%TO.N,Net-(U16-+)*%
X110380000Y-99080000D03*
%TO.P,U16,2,-_2*%
%TO.N,1.65V*%
X110380000Y-96540000D03*
D11*
%TO.P,U16,1,NULL_1*%
%TO.N,unconnected-(U16-NULL-Pad1)*%
X110380000Y-94000000D03*
%TD*%
D12*
%TO.P,R48,2*%
%TO.N,Net-(U19--)*%
X96500000Y-63000000D03*
%TO.P,R48,1*%
%TO.N,Net-(R47-Pad2)*%
X96500000Y-64650000D03*
%TD*%
D11*
%TO.P,U17,1,NULL_1*%
%TO.N,unconnected-(U17-NULL-Pad1)*%
X74500000Y-56000000D03*
D10*
%TO.P,U17,2,-_2*%
%TO.N,Net-(U17--)*%
X74500000Y-58540000D03*
%TO.P,U17,3,+_3*%
%TO.N,GND*%
X74500000Y-61080000D03*
%TO.P,U17,4,V-_4*%
%TO.N,-12V*%
X74500000Y-63620000D03*
%TO.P,U17,5,NULL_5*%
%TO.N,unconnected-(U17-NULL-Pad5)*%
X82120000Y-63620000D03*
%TO.P,U17,6*%
%TO.N,Net-(R40-Pad2)*%
X82120000Y-61080000D03*
%TO.P,U17,7,V+_7*%
%TO.N,+12V*%
X82120000Y-58540000D03*
%TO.P,U17,8,NC_8*%
%TO.N,unconnected-(U17-NC-Pad8)*%
X82120000Y-56000000D03*
%TD*%
D14*
%TO.P,R51,2*%
%TO.N,Net-(R51-Pad2)*%
X114325000Y-68000000D03*
%TO.P,R51,1*%
%TO.N,Net-(U21--)*%
X112675000Y-68000000D03*
%TD*%
D13*
%TO.P,R46,2*%
%TO.N,Net-(U16-+)*%
X120850000Y-83000000D03*
%TO.P,R46,1*%
%TO.N,3.3V*%
X122500000Y-83000000D03*
%TD*%
D12*
%TO.P,R42,2*%
%TO.N,GND*%
X107000000Y-97350000D03*
%TO.P,R42,1*%
%TO.N,Net-(U16-+)*%
X107000000Y-99000000D03*
%TD*%
D11*
%TO.P,U22,1,NULL_1*%
%TO.N,unconnected-(U22-NULL-Pad1)*%
X110380000Y-71960000D03*
D10*
%TO.P,U22,2,-_2*%
%TO.N,Net-(U22--)*%
X110380000Y-74500000D03*
%TO.P,U22,3,+_3*%
%TO.N,GND*%
X110380000Y-77040000D03*
%TO.P,U22,4,V-_4*%
%TO.N,-12V*%
X110380000Y-79580000D03*
%TO.P,U22,5,NULL_5*%
%TO.N,unconnected-(U22-NULL-Pad5)*%
X118000000Y-79580000D03*
%TO.P,U22,6*%
%TO.N,DC_REF_OUTPUT*%
X118000000Y-77040000D03*
%TO.P,U22,7,V+_7*%
%TO.N,+12V*%
X118000000Y-74500000D03*
%TO.P,U22,8,NC_8*%
%TO.N,unconnected-(U22-NC-Pad8)*%
X118000000Y-71960000D03*
%TD*%
D11*
%TO.P,U21,1,NULL_1*%
%TO.N,unconnected-(U21-NULL-Pad1)*%
X109880000Y-55500000D03*
D10*
%TO.P,U21,2,-_2*%
%TO.N,Net-(U21--)*%
X109880000Y-58040000D03*
%TO.P,U21,3,+_3*%
%TO.N,GND*%
X109880000Y-60580000D03*
%TO.P,U21,4,V-_4*%
%TO.N,-12V*%
X109880000Y-63120000D03*
%TO.P,U21,5,NULL_5*%
%TO.N,unconnected-(U21-NULL-Pad5)*%
X117500000Y-63120000D03*
%TO.P,U21,6*%
%TO.N,Net-(R51-Pad2)*%
X117500000Y-60580000D03*
%TO.P,U21,7,V+_7*%
%TO.N,+12V*%
X117500000Y-58040000D03*
%TO.P,U21,8,NC_8*%
%TO.N,unconnected-(U21-NC-Pad8)*%
X117500000Y-55500000D03*
%TD*%
D11*
%TO.P,U19,1,NULL_1*%
%TO.N,unconnected-(U19-NULL-Pad1)*%
X98380000Y-55460000D03*
D10*
%TO.P,U19,2,-_2*%
%TO.N,Net-(U19--)*%
X98380000Y-58000000D03*
%TO.P,U19,3,+_3*%
%TO.N,GND*%
X98380000Y-60540000D03*
%TO.P,U19,4,V-_4*%
%TO.N,-12V*%
X98380000Y-63080000D03*
%TO.P,U19,5,NULL_5*%
%TO.N,unconnected-(U19-NULL-Pad5)*%
X106000000Y-63080000D03*
%TO.P,U19,6*%
%TO.N,Net-(U20-P0A)*%
X106000000Y-60540000D03*
%TO.P,U19,7,V+_7*%
%TO.N,+12V*%
X106000000Y-58000000D03*
%TO.P,U19,8,NC_8*%
%TO.N,unconnected-(U19-NC-Pad8)*%
X106000000Y-55460000D03*
%TD*%
D11*
%TO.P,U18,1,NULL_1*%
%TO.N,unconnected-(U18-NULL-Pad1)*%
X86695000Y-55420000D03*
D10*
%TO.P,U18,2,-_2*%
%TO.N,Net-(U18--)*%
X86695000Y-57960000D03*
%TO.P,U18,3,+_3*%
%TO.N,GND*%
X86695000Y-60500000D03*
%TO.P,U18,4,V-_4*%
%TO.N,-12V*%
X86695000Y-63040000D03*
%TO.P,U18,5,NULL_5*%
%TO.N,unconnected-(U18-NULL-Pad5)*%
X94315000Y-63040000D03*
%TO.P,U18,6*%
%TO.N,Net-(R47-Pad2)*%
X94315000Y-60500000D03*
%TO.P,U18,7,V+_7*%
%TO.N,+12V*%
X94315000Y-57960000D03*
%TO.P,U18,8,NC_8*%
%TO.N,unconnected-(U18-NC-Pad8)*%
X94315000Y-55420000D03*
%TD*%
D15*
%TO.P,J8,R*%
%TO.N,unconnected-(J8-PadR)*%
X75500000Y-83500000D03*
%TO.P,J8,S*%
%TO.N,GND*%
X73500000Y-75600000D03*
%TO.P,J8,T*%
%TO.N,/Sine_Wave_Generator/Left channel*%
X75500000Y-78000000D03*
%TD*%
D10*
%TO.P,U1,14*%
%TO.N,N/C*%
X171850000Y-56735000D03*
%TO.P,U1,13*%
%TO.N,/GPIO25*%
X171850000Y-59275000D03*
%TO.P,U1,12,V-_12*%
%TO.N,GND*%
X171850000Y-61815000D03*
%TO.P,U1,11,+_11*%
%TO.N,Net-(U1C-+)*%
X171850000Y-64355000D03*
%TO.P,U1,10,-_10*%
%TO.N,/SineWaveMeasurer/INPUT*%
X171850000Y-66895000D03*
%TO.P,U1,9*%
%TO.N,N/C*%
X171850000Y-69435000D03*
%TO.P,U1,8*%
X171850000Y-71975000D03*
%TO.P,U1,7,+_7*%
%TO.N,Net-(U1B-+)*%
X164230000Y-71975000D03*
%TO.P,U1,6,-_6*%
%TO.N,Net-(U1B--)*%
X164230000Y-69435000D03*
%TO.P,U1,5,+_5*%
%TO.N,Net-(U1A-+)*%
X164230000Y-66895000D03*
%TO.P,U1,4,-_4*%
%TO.N,Net-(U1A--)*%
X164230000Y-64355000D03*
%TO.P,U1,3,V+_3*%
%TO.N,5V*%
X164230000Y-61815000D03*
%TO.P,U1,2*%
%TO.N,/GPIO20*%
X164230000Y-59275000D03*
D11*
%TO.P,U1,1*%
%TO.N,/GPIO16*%
X164230000Y-56735000D03*
%TD*%
%TO.P,U20,1,~{CS}_1*%
%TO.N,/GPIO17*%
X96880000Y-73500000D03*
D10*
%TO.P,U20,2,SCK_2*%
%TO.N,/GPIO11*%
X96880000Y-76040000D03*
%TO.P,U20,3,SDI/SDO_3*%
%TO.N,/GPIO10*%
X96880000Y-78580000D03*
%TO.P,U20,4,V_{SS}_4*%
%TO.N,GND*%
X96880000Y-81120000D03*
%TO.P,U20,5,P0A_5*%
%TO.N,Net-(U20-P0A)*%
X104500000Y-81120000D03*
%TO.P,U20,6,P0W_6*%
%TO.N,Net-(U20-P0W)*%
X104500000Y-78580000D03*
%TO.P,U20,7,P0B_7*%
%TO.N,GND*%
X104500000Y-76040000D03*
%TO.P,U20,8,V_{DD}_8*%
%TO.N,5V*%
X104500000Y-73500000D03*
%TD*%
D13*
%TO.P,R65,1*%
%TO.N,Net-(U9-+)*%
X215825000Y-107500000D03*
%TO.P,R65,2*%
%TO.N,Net-(R63-Pad1)*%
X214175000Y-107500000D03*
%TD*%
D12*
%TO.P,R64,1*%
%TO.N,/GPIO24*%
X150500000Y-106325000D03*
%TO.P,R64,2*%
%TO.N,Net-(R63-Pad1)*%
X150500000Y-104675000D03*
%TD*%
%TO.P,R62,1*%
%TO.N,/GPIO23*%
X143500000Y-106650000D03*
%TO.P,R62,2*%
%TO.N,Net-(R61-Pad1)*%
X143500000Y-105000000D03*
%TD*%
D13*
%TO.P,R61,1*%
%TO.N,Net-(R61-Pad1)*%
X141825000Y-103000000D03*
%TO.P,R61,2*%
%TO.N,Net-(R59-Pad1)*%
X140175000Y-103000000D03*
%TD*%
D12*
%TO.P,R60,1*%
%TO.N,/GPIO18*%
X136000000Y-106325000D03*
%TO.P,R60,2*%
%TO.N,Net-(R59-Pad1)*%
X136000000Y-104675000D03*
%TD*%
D13*
%TO.P,R59,1*%
%TO.N,Net-(R59-Pad1)*%
X132650000Y-103000000D03*
%TO.P,R59,2*%
%TO.N,Net-(R57-Pad1)*%
X131000000Y-103000000D03*
%TD*%
D12*
%TO.P,R58,1*%
%TO.N,/GPIO15*%
X128000000Y-107325000D03*
%TO.P,R58,2*%
%TO.N,Net-(R57-Pad1)*%
X128000000Y-105675000D03*
%TD*%
D13*
%TO.P,R57,1*%
%TO.N,Net-(R57-Pad1)*%
X128325000Y-103000000D03*
%TO.P,R57,2*%
%TO.N,Net-(R55-Pad1)*%
X126675000Y-103000000D03*
%TD*%
D12*
%TO.P,R56,1*%
%TO.N,/GPIO14*%
X123500000Y-106825000D03*
%TO.P,R56,2*%
%TO.N,Net-(R55-Pad1)*%
X123500000Y-105175000D03*
%TD*%
D14*
%TO.P,R53,1*%
%TO.N,Net-(U22--)*%
X113675000Y-83500000D03*
%TO.P,R53,2*%
%TO.N,DC_REF_OUTPUT*%
X115325000Y-83500000D03*
%TD*%
D16*
%TO.P,R52,1*%
%TO.N,Net-(R51-Pad2)*%
X118000000Y-67175000D03*
%TO.P,R52,2*%
%TO.N,Net-(U22--)*%
X118000000Y-68825000D03*
%TD*%
D12*
%TO.P,R50,1*%
%TO.N,Net-(U20-P0W)*%
X107000000Y-72000000D03*
%TO.P,R50,2*%
%TO.N,Net-(U21--)*%
X107000000Y-70350000D03*
%TD*%
D14*
%TO.P,R49,1*%
%TO.N,Net-(U19--)*%
X101675000Y-67000000D03*
%TO.P,R49,2*%
%TO.N,Net-(U20-P0A)*%
X103325000Y-67000000D03*
%TD*%
%TO.P,R47,1*%
%TO.N,Net-(U18--)*%
X89675000Y-66500000D03*
%TO.P,R47,2*%
%TO.N,Net-(R47-Pad2)*%
X91325000Y-66500000D03*
%TD*%
D12*
%TO.P,R41,1*%
%TO.N,Net-(R40-Pad2)*%
X84500000Y-59325000D03*
%TO.P,R41,2*%
%TO.N,Net-(U18--)*%
X84500000Y-57675000D03*
%TD*%
D14*
%TO.P,R40,1*%
%TO.N,Net-(U17--)*%
X70175000Y-55000000D03*
%TO.P,R40,2*%
%TO.N,Net-(R40-Pad2)*%
X71825000Y-55000000D03*
%TD*%
%TO.P,R39,1*%
%TO.N,Net-(U17--)*%
X95675000Y-53000000D03*
%TO.P,R39,2*%
%TO.N,DC_REF_OUTPUT*%
X97325000Y-53000000D03*
%TD*%
D12*
%TO.P,R38,1*%
%TO.N,/Sine_Wave_Generator/Left channel*%
X70120000Y-60270000D03*
%TO.P,R38,2*%
%TO.N,Net-(U17--)*%
X70120000Y-58620000D03*
%TD*%
D17*
%TO.P,J10,1,Pin_1_1*%
%TO.N,DC_REF_OUTPUT*%
X114500000Y-88500000D03*
%TD*%
%TO.P,J7,1,Pin_1_1*%
%TO.N,/SineWaveMeasurer/INPUT*%
X185000000Y-71000000D03*
%TD*%
D18*
%TO.P,C32,1*%
%TO.N,-12V*%
X92500000Y-97000000D03*
%TO.P,C32,2*%
%TO.N,GND*%
X88900000Y-97000000D03*
%TD*%
D19*
%TO.P,C31,1*%
%TO.N,+12V*%
X81200000Y-89000000D03*
%TO.P,C31,2*%
%TO.N,GND*%
X84800000Y-89000000D03*
%TD*%
D18*
%TO.P,C25,1*%
%TO.N,-12V*%
X92300000Y-89000000D03*
%TO.P,C25,2*%
%TO.N,GND*%
X88700000Y-89000000D03*
%TD*%
D19*
%TO.P,C19,1*%
%TO.N,+12V*%
X81400000Y-97000000D03*
%TO.P,C19,2*%
%TO.N,GND*%
X85000000Y-97000000D03*
%TD*%
D18*
%TO.P,C18,1*%
%TO.N,-12V*%
X92300000Y-81000000D03*
%TO.P,C18,2*%
%TO.N,GND*%
X88700000Y-81000000D03*
%TD*%
D19*
%TO.P,C17,1*%
%TO.N,+12V*%
X81400000Y-73000000D03*
%TO.P,C17,2*%
%TO.N,GND*%
X85000000Y-73000000D03*
%TD*%
%TO.P,C14,1*%
%TO.N,+12V*%
X81400000Y-81000000D03*
%TO.P,C14,2*%
%TO.N,GND*%
X85000000Y-81000000D03*
%TD*%
D18*
%TO.P,C13,1*%
%TO.N,-12V*%
X92500000Y-105000000D03*
%TO.P,C13,2*%
%TO.N,GND*%
X88900000Y-105000000D03*
%TD*%
D19*
%TO.P,C12,1*%
%TO.N,+12V*%
X81400000Y-105000000D03*
%TO.P,C12,2*%
%TO.N,GND*%
X85000000Y-105000000D03*
%TD*%
D18*
%TO.P,C11,1*%
%TO.N,-12V*%
X92300000Y-73000000D03*
%TO.P,C11,2*%
%TO.N,GND*%
X88700000Y-73000000D03*
%TD*%
D14*
%TO.P,R7,1*%
%TO.N,+12V*%
X125905000Y-84275000D03*
%TO.P,R7,2*%
%TO.N,Net-(R7-Pad2)*%
X127555000Y-84275000D03*
%TD*%
%TO.P,R27,1*%
%TO.N,GND*%
X207560000Y-95275000D03*
%TO.P,R27,2*%
%TO.N,Net-(U9--)*%
X209210000Y-95275000D03*
%TD*%
%TO.P,R3,1*%
%TO.N,Net-(U3--)*%
X188400000Y-70465000D03*
%TO.P,R3,2*%
%TO.N,Net-(R3-Pad2)*%
X190050000Y-70465000D03*
%TD*%
D11*
%TO.P,U13,1,NULL_1*%
%TO.N,unconnected-(U13-NULL-Pad1)*%
X215925000Y-55775000D03*
D10*
%TO.P,U13,2,-_2*%
%TO.N,Net-(U13--)*%
X215925000Y-58315000D03*
%TO.P,U13,3,+_3*%
%TO.N,Net-(U11-P1W)*%
X215925000Y-60855000D03*
%TO.P,U13,4,V-_4*%
%TO.N,-12V*%
X215925000Y-63395000D03*
%TO.P,U13,5,NULL_5*%
%TO.N,unconnected-(U13-NULL-Pad5)*%
X223545000Y-63395000D03*
%TO.P,U13,6*%
%TO.N,Net-(U13--)*%
X223545000Y-60855000D03*
%TO.P,U13,7,V+_7*%
%TO.N,+12V*%
X223545000Y-58315000D03*
%TO.P,U13,8,NC_8*%
%TO.N,unconnected-(U13-NC-Pad8)*%
X223545000Y-55775000D03*
%TD*%
D14*
%TO.P,R9,1*%
%TO.N,Net-(R8-Pad2)*%
X131905000Y-84275000D03*
%TO.P,R9,2*%
%TO.N,Net-(R10-Pad1)*%
X133555000Y-84275000D03*
%TD*%
D11*
%TO.P,U12,1,NULL_1*%
%TO.N,unconnected-(U12-NULL-Pad1)*%
X216110000Y-69775000D03*
D10*
%TO.P,U12,2,-_2*%
%TO.N,Net-(U12--)*%
X216110000Y-72315000D03*
%TO.P,U12,3,+_3*%
%TO.N,Net-(U11-P0W)*%
X216110000Y-74855000D03*
%TO.P,U12,4,V-_4*%
%TO.N,-12V*%
X216110000Y-77395000D03*
%TO.P,U12,5,NULL_5*%
%TO.N,unconnected-(U12-NULL-Pad5)*%
X223730000Y-77395000D03*
%TO.P,U12,6*%
%TO.N,Net-(U12--)*%
X223730000Y-74855000D03*
%TO.P,U12,7,V+_7*%
%TO.N,+12V*%
X223730000Y-72315000D03*
%TO.P,U12,8,NC_8*%
%TO.N,unconnected-(U12-NC-Pad8)*%
X223730000Y-69775000D03*
%TD*%
D16*
%TO.P,R30,1*%
%TO.N,5V*%
X233230000Y-91950000D03*
%TO.P,R30,2*%
%TO.N,Net-(U10--)*%
X233230000Y-93600000D03*
%TD*%
%TO.P,R37,1*%
%TO.N,Net-(R36-Pad2)*%
X233230000Y-70950000D03*
%TO.P,R37,2*%
%TO.N,/Square_Wave/OUTPUT*%
X233230000Y-72600000D03*
%TD*%
D14*
%TO.P,R8,1*%
%TO.N,Net-(R7-Pad2)*%
X128905000Y-84275000D03*
%TO.P,R8,2*%
%TO.N,Net-(R8-Pad2)*%
X130555000Y-84275000D03*
%TD*%
D20*
%TO.P,Q1,1,G_1*%
%TO.N,Net-(Q1-G)*%
X174730000Y-85855000D03*
D21*
%TO.P,Q1,2,D_2*%
%TO.N,+12V*%
X174730000Y-83315000D03*
%TO.P,Q1,3,S_3*%
%TO.N,Net-(Q1-S)*%
X174730000Y-80775000D03*
%TD*%
D14*
%TO.P,R28,1*%
%TO.N,Net-(U9--)*%
X230060000Y-103775000D03*
%TO.P,R28,2*%
%TO.N,Net-(R28-Pad2)*%
X231710000Y-103775000D03*
%TD*%
D12*
%TO.P,R6,1*%
%TO.N,/GPIO20*%
X203885000Y-100255000D03*
%TO.P,R6,2*%
%TO.N,3.3V*%
X203885000Y-98605000D03*
%TD*%
D20*
%TO.P,Q2,1,G_1*%
%TO.N,Net-(Q1-G)*%
X172590000Y-92965000D03*
D21*
%TO.P,Q2,2,D_2*%
%TO.N,Net-(Q1-S)*%
X172590000Y-95505000D03*
%TO.P,Q2,3,S_3*%
%TO.N,-12V*%
X172590000Y-98045000D03*
%TD*%
D14*
%TO.P,R15,1*%
%TO.N,Net-(R14-Pad2)*%
X135130000Y-66275000D03*
%TO.P,R15,2*%
%TO.N,Net-(U6-+)*%
X136780000Y-66275000D03*
%TD*%
D13*
%TO.P,R18,1*%
%TO.N,Net-(D2-K)*%
X147710000Y-91775000D03*
%TO.P,R18,2*%
%TO.N,-12V*%
X146060000Y-91775000D03*
%TD*%
D11*
%TO.P,U2,1,~{CS}_1*%
%TO.N,/GPIO8*%
X146110000Y-56695000D03*
D10*
%TO.P,U2,2,SCK_2*%
%TO.N,/GPIO11*%
X146110000Y-59235000D03*
%TO.P,U2,3,SDI/SDO_3*%
%TO.N,/GPIO10*%
X146110000Y-61775000D03*
%TO.P,U2,4,V_{SS}_4*%
%TO.N,GND*%
X146110000Y-64315000D03*
%TO.P,U2,5,P0A_5*%
%TO.N,3.3V*%
X153730000Y-64315000D03*
%TO.P,U2,6,P0W_6*%
%TO.N,Net-(U1A--)*%
X153730000Y-61775000D03*
%TO.P,U2,7,P0B_7*%
%TO.N,GND*%
X153730000Y-59235000D03*
%TO.P,U2,8,V_{DD}_8*%
%TO.N,3.3V*%
X153730000Y-56695000D03*
%TD*%
D14*
%TO.P,R19,1*%
%TO.N,Net-(U8--)*%
X161080000Y-84275000D03*
%TO.P,R19,2*%
%TO.N,Net-(Q1-S)*%
X162730000Y-84275000D03*
%TD*%
D22*
%TO.P,U6,1,NULL_1*%
%TO.N,unconnected-(U6-NULL-Pad1)*%
X127420000Y-62580000D03*
D10*
%TO.P,U6,2,-_2*%
%TO.N,5V*%
X129960000Y-62580000D03*
%TO.P,U6,3,+_3*%
%TO.N,Net-(U6-+)*%
X132500000Y-62580000D03*
%TO.P,U6,4,V-_4*%
%TO.N,-12V*%
X135040000Y-62580000D03*
%TO.P,U6,5,NULL_5*%
%TO.N,unconnected-(U6-NULL-Pad5)*%
X135040000Y-54960000D03*
%TO.P,U6,6*%
%TO.N,5V*%
X132500000Y-54960000D03*
%TO.P,U6,7,V+_7*%
%TO.N,+12V*%
X129960000Y-54960000D03*
%TO.P,U6,8,NC_8*%
%TO.N,unconnected-(U6-NC-Pad8)*%
X127420000Y-54960000D03*
%TD*%
D14*
%TO.P,R13,1*%
%TO.N,Net-(R12-Pad2)*%
X127130000Y-66275000D03*
%TO.P,R13,2*%
%TO.N,Net-(R13-Pad2)*%
X128780000Y-66275000D03*
%TD*%
D13*
%TO.P,R17,1*%
%TO.N,Net-(D1-A)*%
X147530000Y-96275000D03*
%TO.P,R17,2*%
%TO.N,+12V*%
X145880000Y-96275000D03*
%TD*%
D23*
%TO.P,C2,1*%
%TO.N,Net-(Q1-S)*%
X183230000Y-92845000D03*
%TO.P,C2,2*%
%TO.N,-12V*%
X183230000Y-94395000D03*
%TD*%
D14*
%TO.P,R1,1*%
%TO.N,/Voltmeter/VOLTAGE_INPUT*%
X178560000Y-59275000D03*
%TO.P,R1,2*%
%TO.N,Net-(U3--)*%
X180210000Y-59275000D03*
%TD*%
%TO.P,R14,1*%
%TO.N,Net-(R13-Pad2)*%
X131130000Y-66275000D03*
%TO.P,R14,2*%
%TO.N,Net-(R14-Pad2)*%
X132780000Y-66275000D03*
%TD*%
%TO.P,R10,1*%
%TO.N,Net-(R10-Pad1)*%
X134905000Y-84275000D03*
%TO.P,R10,2*%
%TO.N,Net-(U5-+)*%
X136555000Y-84275000D03*
%TD*%
D16*
%TO.P,R35,1*%
%TO.N,GND*%
X226730000Y-55450000D03*
%TO.P,R35,2*%
%TO.N,Net-(U14-+)*%
X226730000Y-57100000D03*
%TD*%
D14*
%TO.P,R11,1*%
%TO.N,Net-(U5-+)*%
X137905000Y-84275000D03*
%TO.P,R11,2*%
%TO.N,GND*%
X139555000Y-84275000D03*
%TD*%
D24*
%TO.P,D2,1,K_1*%
%TO.N,Net-(D2-K)*%
X151885000Y-90575000D03*
%TO.P,D2,2,A_2*%
%TO.N,Net-(D1-K)*%
X151885000Y-91975000D03*
%TD*%
D13*
%TO.P,R33,1*%
%TO.N,Net-(U12--)*%
X228555000Y-73275000D03*
%TO.P,R33,2*%
%TO.N,Net-(U14-+)*%
X226905000Y-73275000D03*
%TD*%
D12*
%TO.P,R32,1*%
%TO.N,Net-(U10--)*%
X225885000Y-95600000D03*
%TO.P,R32,2*%
%TO.N,DC_REF_OUTPUT*%
X225885000Y-93950000D03*
%TD*%
D14*
%TO.P,R20,1*%
%TO.N,3.3V*%
X159905000Y-71275000D03*
%TO.P,R20,2*%
%TO.N,Net-(U1B-+)*%
X161555000Y-71275000D03*
%TD*%
%TO.P,R16,1*%
%TO.N,Net-(U6-+)*%
X138630000Y-66275000D03*
%TO.P,R16,2*%
%TO.N,GND*%
X140280000Y-66275000D03*
%TD*%
D11*
%TO.P,U3,1,NULL_1*%
%TO.N,unconnected-(U3-NULL-Pad1)*%
X201740000Y-57965000D03*
D10*
%TO.P,U3,2,-_2*%
%TO.N,Net-(U3--)*%
X201740000Y-60505000D03*
%TO.P,U3,3,+_3*%
%TO.N,GND*%
X201740000Y-63045000D03*
%TO.P,U3,4,V-_4*%
%TO.N,-12V*%
X201740000Y-65585000D03*
%TO.P,U3,5,NULL_5*%
%TO.N,unconnected-(U3-NULL-Pad5)*%
X209360000Y-65585000D03*
%TO.P,U3,6*%
%TO.N,Net-(R3-Pad2)*%
X209360000Y-63045000D03*
%TO.P,U3,7,V+_7*%
%TO.N,+12V*%
X209360000Y-60505000D03*
%TO.P,U3,8,NC_8*%
%TO.N,unconnected-(U3-NC-Pad8)*%
X209360000Y-57965000D03*
%TD*%
D17*
%TO.P,J6,1,Pin_1_1*%
%TO.N,/Square_Wave/OUTPUT*%
X233230000Y-75275000D03*
%TD*%
D12*
%TO.P,R34,1*%
%TO.N,Net-(U14--)*%
X226730000Y-60945000D03*
%TO.P,R34,2*%
%TO.N,Net-(U13--)*%
X226730000Y-59295000D03*
%TD*%
D25*
%TO.P,U8,1,NULL_1*%
%TO.N,unconnected-(U8-NULL-Pad1)*%
X165540000Y-88965000D03*
D26*
%TO.P,U8,2,-_2*%
%TO.N,Net-(U8--)*%
X163000000Y-88965000D03*
%TO.P,U8,3,+_3*%
%TO.N,Net-(D1-K)*%
X160460000Y-88965000D03*
%TO.P,U8,4,V-_4*%
%TO.N,-12V*%
X157920000Y-88965000D03*
%TO.P,U8,5,NULL_5*%
%TO.N,unconnected-(U8-NULL-Pad5)*%
X157920000Y-96585000D03*
%TO.P,U8,6*%
%TO.N,Net-(Q1-G)*%
X160460000Y-96585000D03*
%TO.P,U8,7,V+_7*%
%TO.N,+12V*%
X163000000Y-96585000D03*
%TO.P,U8,8,NC_8*%
%TO.N,unconnected-(U8-NC-Pad8)*%
X165540000Y-96585000D03*
%TD*%
D17*
%TO.P,J3,1,Pin_1_1*%
%TO.N,/Voltmeter/VOLTAGE_INPUT*%
X179230000Y-54775000D03*
%TD*%
D24*
%TO.P,D1,1,K_1*%
%TO.N,Net-(D1-K)*%
X152050000Y-95075000D03*
%TO.P,D1,2,A_2*%
%TO.N,Net-(D1-A)*%
X152050000Y-96475000D03*
%TD*%
D27*
%TO.P,C1,1*%
%TO.N,+12V*%
X182730000Y-86895000D03*
%TO.P,C1,2*%
%TO.N,Net-(Q1-S)*%
X182730000Y-85345000D03*
%TD*%
D11*
%TO.P,U7,1,~{CS}_1*%
%TO.N,/GPIO7*%
X146110000Y-70275000D03*
D10*
%TO.P,U7,2,SCK_2*%
%TO.N,/GPIO11*%
X146110000Y-72815000D03*
%TO.P,U7,3,SDI/SDO_3*%
%TO.N,/GPIO10*%
X146110000Y-75355000D03*
%TO.P,U7,4,V_{SS}_4*%
%TO.N,GND*%
X146110000Y-77895000D03*
%TO.P,U7,5,P0A_5*%
%TO.N,3.3V*%
X153730000Y-77895000D03*
%TO.P,U7,6,P0W_6*%
%TO.N,Net-(U1B--)*%
X153730000Y-75355000D03*
%TO.P,U7,7,P0B_7*%
%TO.N,GND*%
X153730000Y-72815000D03*
%TO.P,U7,8,V_{DD}_8*%
%TO.N,3.3V*%
X153730000Y-70275000D03*
%TD*%
D14*
%TO.P,R4,1*%
%TO.N,Net-(R3-Pad2)*%
X196720000Y-60775000D03*
%TO.P,R4,2*%
%TO.N,Net-(U4--)*%
X198370000Y-60775000D03*
%TD*%
%TO.P,R2,1*%
%TO.N,5V*%
X178560000Y-63275000D03*
%TO.P,R2,2*%
%TO.N,Net-(U3--)*%
X180210000Y-63275000D03*
%TD*%
%TO.P,R36,1*%
%TO.N,Net-(U14--)*%
X230585000Y-68275000D03*
%TO.P,R36,2*%
%TO.N,Net-(R36-Pad2)*%
X232235000Y-68275000D03*
%TD*%
D11*
%TO.P,U14,1,NULL_1*%
%TO.N,unconnected-(U14-NULL-Pad1)*%
X229730000Y-55775000D03*
D10*
%TO.P,U14,2,-_2*%
%TO.N,Net-(U14--)*%
X229730000Y-58315000D03*
%TO.P,U14,3,+_3*%
%TO.N,Net-(U14-+)*%
X229730000Y-60855000D03*
%TO.P,U14,4,V-_4*%
%TO.N,-12V*%
X229730000Y-63395000D03*
%TO.P,U14,5,NULL_5*%
%TO.N,unconnected-(U14-NULL-Pad5)*%
X237350000Y-63395000D03*
%TO.P,U14,6*%
%TO.N,Net-(R36-Pad2)*%
X237350000Y-60855000D03*
%TO.P,U14,7,V+_7*%
%TO.N,+12V*%
X237350000Y-58315000D03*
%TO.P,U14,8,NC_8*%
%TO.N,unconnected-(U14-NC-Pad8)*%
X237350000Y-55775000D03*
%TD*%
D28*
%TO.P,U5,1,NULL_1*%
%TO.N,unconnected-(U5-NULL-Pad1)*%
X135040000Y-70470000D03*
D10*
%TO.P,U5,2,-_2*%
%TO.N,3.3V*%
X132500000Y-70470000D03*
%TO.P,U5,3,+_3*%
%TO.N,Net-(U5-+)*%
X129960000Y-70470000D03*
%TO.P,U5,4,V-_4*%
%TO.N,-12V*%
X127420000Y-70470000D03*
%TO.P,U5,5,NULL_5*%
%TO.N,unconnected-(U5-NULL-Pad5)*%
X127420000Y-78090000D03*
%TO.P,U5,6*%
%TO.N,3.3V*%
X129960000Y-78090000D03*
%TO.P,U5,7,V+_7*%
%TO.N,+12V*%
X132500000Y-78090000D03*
%TO.P,U5,8,NC_8*%
%TO.N,unconnected-(U5-NC-Pad8)*%
X135040000Y-78090000D03*
%TD*%
D14*
%TO.P,R5,1*%
%TO.N,Net-(U4--)*%
X204875000Y-70775000D03*
%TO.P,R5,2*%
%TO.N,Net-(U1A-+)*%
X206525000Y-70775000D03*
%TD*%
D17*
%TO.P,J4,1,Pin_1_1*%
%TO.N,3.3V*%
X157730000Y-66775000D03*
%TD*%
D14*
%TO.P,R29,1*%
%TO.N,Net-(R28-Pad2)*%
X229560000Y-97275000D03*
%TO.P,R29,2*%
%TO.N,Net-(U10-+)*%
X231210000Y-97275000D03*
%TD*%
D11*
%TO.P,U10,1,NULL_1*%
%TO.N,unconnected-(U10-NULL-Pad1)*%
X216425000Y-83465000D03*
D10*
%TO.P,U10,2,-_2*%
%TO.N,Net-(U10--)*%
X216425000Y-86005000D03*
%TO.P,U10,3,+_3*%
%TO.N,Net-(U10-+)*%
X216425000Y-88545000D03*
%TO.P,U10,4,V-_4*%
%TO.N,-12V*%
X216425000Y-91085000D03*
%TO.P,U10,5,NULL_5*%
%TO.N,unconnected-(U10-NULL-Pad5)*%
X224045000Y-91085000D03*
%TO.P,U10,6*%
%TO.N,DC_REF_OUTPUT*%
X224045000Y-88545000D03*
%TO.P,U10,7,V+_7*%
%TO.N,+12V*%
X224045000Y-86005000D03*
%TO.P,U10,8,NC_8*%
%TO.N,unconnected-(U10-NC-Pad8)*%
X224045000Y-83465000D03*
%TD*%
D11*
%TO.P,U4,1,NULL_1*%
%TO.N,unconnected-(U4-NULL-Pad1)*%
X185425000Y-57965000D03*
D10*
%TO.P,U4,2,-_2*%
%TO.N,Net-(U4--)*%
X185425000Y-60505000D03*
%TO.P,U4,3,+_3*%
%TO.N,GND*%
X185425000Y-63045000D03*
%TO.P,U4,4,V-_4*%
%TO.N,-12V*%
X185425000Y-65585000D03*
%TO.P,U4,5,NULL_5*%
%TO.N,unconnected-(U4-NULL-Pad5)*%
X193045000Y-65585000D03*
%TO.P,U4,6*%
%TO.N,Net-(U1A-+)*%
X193045000Y-63045000D03*
%TO.P,U4,7,V+_7*%
%TO.N,+12V*%
X193045000Y-60505000D03*
%TO.P,U4,8,NC_8*%
%TO.N,unconnected-(U4-NC-Pad8)*%
X193045000Y-57965000D03*
%TD*%
D13*
%TO.P,R21,1*%
%TO.N,/GPIO16*%
X160900000Y-56775000D03*
%TO.P,R21,2*%
%TO.N,3.3V*%
X159250000Y-56775000D03*
%TD*%
D11*
%TO.P,U11,1,~{CS}_1*%
%TO.N,/GPIO7*%
X195730000Y-78735000D03*
D10*
%TO.P,U11,2,SCK_2*%
%TO.N,/GPIO11*%
X195730000Y-81275000D03*
%TO.P,U11,3,SDI_3*%
%TO.N,/GPIO10*%
X195730000Y-83815000D03*
%TO.P,U11,4,VSS_4*%
%TO.N,GND*%
X195730000Y-86355000D03*
%TO.P,U11,5,P1B_5*%
%TO.N,/GPIO12*%
X195730000Y-88895000D03*
%TO.P,U11,6,P1W_6*%
%TO.N,Net-(U11-P1W)*%
X195730000Y-91435000D03*
%TO.P,U11,7,P1A_7*%
%TO.N,GND*%
X195730000Y-93975000D03*
%TO.P,U11,8,P0A_8*%
X203350000Y-93975000D03*
%TO.P,U11,9,P0W_9*%
%TO.N,Net-(U11-P0W)*%
X203350000Y-91435000D03*
%TO.P,U11,10,P0B_10*%
%TO.N,3.3V*%
X203350000Y-88895000D03*
%TO.P,U11,11,~{WP}_11*%
X203350000Y-86355000D03*
%TO.P,U11,12,~{SHDN}_12*%
%TO.N,unconnected-(U11-~{SHDN}-Pad12)*%
X203350000Y-83815000D03*
%TO.P,U11,13,SDO_13*%
%TO.N,3.3V*%
X203350000Y-81275000D03*
%TO.P,U11,14,VDD_14*%
X203350000Y-78735000D03*
%TD*%
D14*
%TO.P,R12,1*%
%TO.N,+12V*%
X123905000Y-66275000D03*
%TO.P,R12,2*%
%TO.N,Net-(R12-Pad2)*%
X125555000Y-66275000D03*
%TD*%
%TO.P,R31,1*%
%TO.N,GND*%
X208060000Y-88775000D03*
%TO.P,R31,2*%
%TO.N,Net-(U10-+)*%
X209710000Y-88775000D03*
%TD*%
D17*
%TO.P,J5,1,Pin_1_1*%
%TO.N,DC_REF_OUTPUT*%
X233230000Y-81275000D03*
%TD*%
D29*
%TO.P,J1,1,1_1*%
%TO.N,unconnected-(J1-Pad1)*%
X158610000Y-106275000D03*
D30*
%TO.P,J1,2,2_2*%
%TO.N,unconnected-(J1-Pad2)*%
X158610000Y-103735000D03*
%TO.P,J1,3,3_3*%
%TO.N,/GPIO2*%
X161150000Y-106275000D03*
%TO.P,J1,4,4_4*%
%TO.N,unconnected-(J1-Pad2)*%
X161150000Y-103735000D03*
%TO.P,J1,5,5_5*%
%TO.N,/GPIO3*%
X163690000Y-106275000D03*
%TO.P,J1,6,6_6*%
%TO.N,GND*%
X163690000Y-103735000D03*
%TO.P,J1,7,7_7*%
%TO.N,/GPIO4*%
X166230000Y-106275000D03*
%TO.P,J1,8,8_8*%
%TO.N,/GPIO14*%
X166230000Y-103735000D03*
%TO.P,J1,9,9_9*%
%TO.N,GND*%
X168770000Y-106275000D03*
%TO.P,J1,10,10_10*%
%TO.N,/GPIO15*%
X168770000Y-103735000D03*
%TO.P,J1,11,11_11*%
%TO.N,/GPIO17*%
X171310000Y-106275000D03*
%TO.P,J1,12,12_12*%
%TO.N,/GPIO18*%
X171310000Y-103735000D03*
%TO.P,J1,13,13_13*%
%TO.N,/GPIO27*%
X173850000Y-106275000D03*
%TO.P,J1,14,14_14*%
%TO.N,GND*%
X173850000Y-103735000D03*
%TO.P,J1,15,15_15*%
%TO.N,/GPIO22*%
X176390000Y-106275000D03*
%TO.P,J1,16,16_16*%
%TO.N,/GPIO23*%
X176390000Y-103735000D03*
%TO.P,J1,17,17_17*%
%TO.N,/3V3*%
X178930000Y-106275000D03*
%TO.P,J1,18,18_18*%
%TO.N,/GPIO24*%
X178930000Y-103735000D03*
%TO.P,J1,19,19_19*%
%TO.N,/GPIO10*%
X181470000Y-106275000D03*
%TO.P,J1,20,20_20*%
%TO.N,GND*%
X181470000Y-103735000D03*
%TO.P,J1,21,21_21*%
%TO.N,/GPIO9*%
X184010000Y-106275000D03*
%TO.P,J1,22,22_22*%
%TO.N,/GPIO25*%
X184010000Y-103735000D03*
%TO.P,J1,23,23_23*%
%TO.N,/GPIO11*%
X186550000Y-106275000D03*
%TO.P,J1,24,24_24*%
%TO.N,/GPIO8*%
X186550000Y-103735000D03*
%TO.P,J1,25,25_25*%
%TO.N,GND*%
X189090000Y-106275000D03*
%TO.P,J1,26,26_26*%
%TO.N,/GPIO7*%
X189090000Y-103735000D03*
%TO.P,J1,27,27_27*%
%TO.N,/GPIO0*%
X191630000Y-106275000D03*
%TO.P,J1,28,28_28*%
%TO.N,/GPIO1*%
X191630000Y-103735000D03*
%TO.P,J1,29,29_29*%
%TO.N,/GPIO5*%
X194170000Y-106275000D03*
%TO.P,J1,30,30_30*%
%TO.N,GND*%
X194170000Y-103735000D03*
%TO.P,J1,31,31_31*%
%TO.N,/GPIO6*%
X196710000Y-106275000D03*
%TO.P,J1,32,32_32*%
%TO.N,/GPIO12*%
X196710000Y-103735000D03*
%TO.P,J1,33,33_33*%
%TO.N,/GPIO13*%
X199250000Y-106275000D03*
%TO.P,J1,34,34_34*%
%TO.N,GND*%
X199250000Y-103735000D03*
%TO.P,J1,35,35_35*%
%TO.N,/GPIO19*%
X201790000Y-106275000D03*
%TO.P,J1,36,36_36*%
%TO.N,/GPIO16*%
X201790000Y-103735000D03*
%TO.P,J1,37,37_37*%
%TO.N,/GPIO26*%
X204330000Y-106275000D03*
%TO.P,J1,38,38_38*%
%TO.N,/GPIO20*%
X204330000Y-103735000D03*
%TO.P,J1,39,39_39*%
%TO.N,GND*%
X206870000Y-106275000D03*
%TO.P,J1,40,40_40*%
%TO.N,/GPIO21*%
X206870000Y-103735000D03*
%TD*%
D31*
%TO.P,J2,3*%
%TO.N,N/C*%
X135730000Y-100700000D03*
D32*
%TO.P,J2,2*%
%TO.N,-12V*%
X132730000Y-96000000D03*
D33*
%TO.P,J2,1*%
%TO.N,+12V*%
X138730000Y-96000000D03*
%TD*%
D34*
%TO.N,/GPIO15*%
X132000000Y-107500000D03*
%TO.N,/GPIO14*%
X125000000Y-107000000D03*
%TO.N,/GPIO23*%
X145000000Y-106500000D03*
%TO.N,/GPIO18*%
X137825000Y-106325000D03*
%TO.N,+12V*%
X79000000Y-75000000D03*
%TO.N,Net-(R40-Pad2)*%
X75500000Y-53500000D03*
%TO.N,+12V*%
X130730000Y-93500000D03*
X123730000Y-71775000D03*
X212230000Y-93275000D03*
%TO.N,GND*%
X226730000Y-54275000D03*
%TO.N,Net-(U9--)*%
X229230000Y-104775000D03*
X210230000Y-95275000D03*
%TO.N,Net-(U3--)*%
X181230000Y-59275000D03*
%TO.N,Net-(R3-Pad2)*%
X194730000Y-68275000D03*
%TO.N,Net-(U11-P1W)*%
X203730000Y-75775000D03*
%TO.N,-12V*%
X209230000Y-73275000D03*
X211230000Y-105775000D03*
X211230000Y-77775000D03*
X211230000Y-91775000D03*
%TO.N,5V*%
X233230000Y-90275000D03*
X177730000Y-63275000D03*
%TO.N,3.3V*%
X190230000Y-90775000D03*
X204230000Y-96775000D03*
%TO.N,/GPIO11*%
X186730000Y-99775000D03*
%TO.N,/GPIO10*%
X190230000Y-94275000D03*
%TO.N,Net-(U14-+)*%
X225730000Y-73275000D03*
%TO.N,DC_REF_OUTPUT*%
X225885000Y-91275000D03*
%TO.N,/GPIO7*%
X185730000Y-100775000D03*
%TO.N,Net-(U10-+)*%
X210230000Y-90775000D03*
%TO.N,/GPIO12*%
X197730000Y-97775000D03*
%TD*%
%TO.N,Net-(U20-P0A)*%
D35*
X103325000Y-67000000D02*
X103325000Y-79945000D01*
X103325000Y-79945000D02*
X104500000Y-81120000D01*
%TO.N,Net-(R55-Pad1)*%
X123650000Y-102500000D02*
X123650000Y-105025000D01*
X123650000Y-105025000D02*
X123500000Y-105175000D01*
%TO.N,-12V*%
X132730000Y-96000000D02*
X127312352Y-96000000D01*
X110380000Y-101620000D02*
X111480000Y-102720000D01*
X127312352Y-96000000D02*
X128000000Y-96000000D01*
X111480000Y-102720000D02*
X120592352Y-102720000D01*
X120592352Y-102720000D02*
X127312352Y-96000000D01*
%TO.N,/GPIO14*%
X124825000Y-106825000D02*
X125000000Y-107000000D01*
X123500000Y-106825000D02*
X124825000Y-106825000D01*
%TO.N,/GPIO15*%
X131825000Y-107325000D02*
X132000000Y-107500000D01*
X128000000Y-107325000D02*
X131825000Y-107325000D01*
%TO.N,/GPIO23*%
X144850000Y-106650000D02*
X145000000Y-106500000D01*
X143500000Y-106650000D02*
X144850000Y-106650000D01*
%TO.N,/GPIO18*%
X136000000Y-106325000D02*
X137825000Y-106325000D01*
%TO.N,/GPIO24*%
X150500000Y-106325000D02*
X148962352Y-106325000D01*
X148962352Y-106325000D02*
X146125000Y-103487648D01*
X146125000Y-103487648D02*
X146125000Y-102512352D01*
X146125000Y-102512352D02*
X146412352Y-102225000D01*
X177420000Y-102225000D02*
X178930000Y-103735000D01*
X146412352Y-102225000D02*
X177420000Y-102225000D01*
%TO.N,Net-(R63-Pad1)*%
X214175000Y-107500000D02*
X211800000Y-105125000D01*
X211800000Y-105125000D02*
X150950000Y-105125000D01*
X150950000Y-105125000D02*
X150500000Y-104675000D01*
%TO.N,Net-(U9-+)*%
X215825000Y-107500000D02*
X215825000Y-105645000D01*
X215825000Y-105645000D02*
X217925000Y-103545000D01*
%TO.N,Net-(R63-Pad1)*%
X146825000Y-103000000D02*
X148825000Y-103000000D01*
X148825000Y-103000000D02*
X150500000Y-104675000D01*
%TO.N,Net-(R61-Pad1)*%
X143500000Y-105000000D02*
X143500000Y-104675000D01*
X143500000Y-104675000D02*
X145175000Y-103000000D01*
X141825000Y-103000000D02*
X143500000Y-104675000D01*
%TO.N,Net-(R59-Pad1)*%
X136000000Y-104675000D02*
X138500000Y-104675000D01*
X138500000Y-104675000D02*
X140175000Y-103000000D01*
X132650000Y-103000000D02*
X134325000Y-103000000D01*
X134325000Y-103000000D02*
X136000000Y-104675000D01*
%TO.N,Net-(R57-Pad1)*%
X128325000Y-103000000D02*
X128325000Y-105350000D01*
X128325000Y-105350000D02*
X128000000Y-105675000D01*
X128325000Y-103000000D02*
X131000000Y-103000000D01*
%TO.N,Net-(R55-Pad1)*%
X123650000Y-102500000D02*
X126175000Y-102500000D01*
X126175000Y-102500000D02*
X126675000Y-103000000D01*
%TO.N,Net-(R54-Pad2)*%
X119000000Y-105175000D02*
X119325000Y-105175000D01*
X119325000Y-105175000D02*
X122000000Y-102500000D01*
%TO.N,GND*%
X119000000Y-106825000D02*
X113637352Y-106825000D01*
X106225000Y-98125000D02*
X107000000Y-97350000D01*
X113637352Y-106825000D02*
X106225000Y-99412648D01*
X106225000Y-99412648D02*
X106225000Y-98125000D01*
%TO.N,/GPIO17*%
X96880000Y-73500000D02*
X95780000Y-74600000D01*
X95780000Y-74600000D02*
X95780000Y-103280000D01*
X95780000Y-103280000D02*
X101127887Y-108627887D01*
X101127887Y-108627887D02*
X169045498Y-108539502D01*
X169045498Y-108539502D02*
X171310000Y-106275000D01*
%TO.N,3.3V*%
X122500000Y-83000000D02*
X122500000Y-74745635D01*
X122500000Y-74745635D02*
X126320000Y-70925635D01*
X126964365Y-69370000D02*
X127875635Y-69370000D01*
X127875635Y-69370000D02*
X128520000Y-70014365D01*
X126320000Y-70925635D02*
X126320000Y-70014365D01*
X126320000Y-70014365D02*
X126964365Y-69370000D01*
X128520000Y-70014365D02*
X128520000Y-76650000D01*
X128520000Y-76650000D02*
X129960000Y-78090000D01*
%TO.N,Net-(U16-+)*%
X120850000Y-83000000D02*
X120850000Y-97785635D01*
X120850000Y-97785635D02*
X118455635Y-100180000D01*
X118455635Y-100180000D02*
X111480000Y-100180000D01*
X111480000Y-100180000D02*
X110380000Y-99080000D01*
%TO.N,1.65V*%
X118000000Y-99080000D02*
X112920000Y-99080000D01*
X112920000Y-99080000D02*
X110380000Y-96540000D01*
%TO.N,GND*%
X107000000Y-97350000D02*
X107000000Y-80420000D01*
X107000000Y-80420000D02*
X110380000Y-77040000D01*
%TO.N,Net-(U16-+)*%
X107000000Y-99000000D02*
X110300000Y-99000000D01*
X110300000Y-99000000D02*
X110380000Y-99080000D01*
%TO.N,DC_REF_OUTPUT*%
X114500000Y-88500000D02*
X114500000Y-84325000D01*
X114500000Y-84325000D02*
X115325000Y-83500000D01*
X115325000Y-83500000D02*
X115325000Y-78275000D01*
X115325000Y-78275000D02*
X116560000Y-77040000D01*
X116560000Y-77040000D02*
X118000000Y-77040000D01*
%TO.N,Net-(U22--)*%
X113675000Y-83500000D02*
X113675000Y-77795000D01*
X113675000Y-77795000D02*
X110380000Y-74500000D01*
%TO.N,Net-(R51-Pad2)*%
X114325000Y-68000000D02*
X114325000Y-66000000D01*
X114825000Y-65500000D02*
X114325000Y-66000000D01*
X114825000Y-65500000D02*
X114325000Y-65000000D01*
X118000000Y-67175000D02*
X116325000Y-65500000D01*
X116325000Y-65500000D02*
X114825000Y-65500000D01*
%TO.N,Net-(U22--)*%
X118000000Y-68825000D02*
X116055000Y-68825000D01*
X116055000Y-68825000D02*
X110380000Y-74500000D01*
%TO.N,Net-(U21--)*%
X107600000Y-68000000D02*
X107100000Y-67500000D01*
X107100000Y-70250000D02*
X107100000Y-68500000D01*
X112675000Y-68000000D02*
X107600000Y-68000000D01*
X107600000Y-68000000D02*
X107100000Y-68500000D01*
X107100000Y-67500000D02*
X107100000Y-60820000D01*
%TO.N,Net-(R51-Pad2)*%
X114325000Y-65000000D02*
X114325000Y-63755000D01*
X114325000Y-63755000D02*
X117500000Y-60580000D01*
%TO.N,-12V*%
X92300000Y-73000000D02*
X86695000Y-67395000D01*
X86695000Y-67395000D02*
X86695000Y-63040000D01*
%TO.N,+12V*%
X79000000Y-75000000D02*
X79400000Y-75000000D01*
X79400000Y-75000000D02*
X81400000Y-73000000D01*
%TO.N,Net-(U21--)*%
X107000000Y-70350000D02*
X107100000Y-70250000D01*
X107100000Y-60820000D02*
X109880000Y-58040000D01*
%TO.N,Net-(U20-P0W)*%
X107000000Y-72000000D02*
X107000000Y-76080000D01*
X107000000Y-76080000D02*
X104500000Y-78580000D01*
%TO.N,Net-(U20-P0A)*%
X103325000Y-67000000D02*
X103325000Y-63215000D01*
X103325000Y-63215000D02*
X106000000Y-60540000D01*
%TO.N,Net-(U19--)*%
X101675000Y-67000000D02*
X100500000Y-67000000D01*
X100500000Y-67000000D02*
X96500000Y-63000000D01*
%TO.N,GND*%
X85000000Y-73000000D02*
X83900000Y-71900000D01*
X77200000Y-74800000D02*
X77200000Y-78497056D01*
X77200000Y-78497056D02*
X76497056Y-79200000D01*
X83900000Y-71900000D02*
X80100000Y-71900000D01*
X80100000Y-71900000D02*
X77200000Y-74800000D01*
X76497056Y-79200000D02*
X74502944Y-79200000D01*
X74502944Y-79200000D02*
X73500000Y-78197056D01*
X73500000Y-78197056D02*
X73500000Y-75600000D01*
%TO.N,+12V*%
X81400000Y-81000000D02*
X81400000Y-73000000D01*
X81400000Y-81000000D02*
X81400000Y-88800000D01*
X81400000Y-88800000D02*
X81200000Y-89000000D01*
X81200000Y-89000000D02*
X81200000Y-96800000D01*
X81200000Y-96800000D02*
X81400000Y-97000000D01*
X81400000Y-105000000D02*
X81400000Y-97000000D01*
%TO.N,-12V*%
X92500000Y-97000000D02*
X92500000Y-105000000D01*
X92300000Y-89000000D02*
X92300000Y-96800000D01*
X92300000Y-96800000D02*
X92500000Y-97000000D01*
X92300000Y-81000000D02*
X92300000Y-89000000D01*
X92300000Y-73000000D02*
X92300000Y-81000000D01*
%TO.N,Net-(R47-Pad2)*%
X96500000Y-65500000D02*
X95500000Y-66500000D01*
X96500000Y-64650000D02*
X96500000Y-65500000D01*
X95500000Y-66500000D02*
X91325000Y-66500000D01*
%TO.N,Net-(U19--)*%
X96500000Y-63000000D02*
X96500000Y-59880000D01*
X96500000Y-59880000D02*
X98380000Y-58000000D01*
%TO.N,Net-(U18--)*%
X89675000Y-66500000D02*
X89675000Y-60940000D01*
X89675000Y-60940000D02*
X86695000Y-57960000D01*
%TO.N,Net-(R47-Pad2)*%
X91325000Y-66500000D02*
X91325000Y-63490000D01*
X91325000Y-63490000D02*
X94315000Y-60500000D01*
%TO.N,Net-(R40-Pad2)*%
X84500000Y-59325000D02*
X83875000Y-59325000D01*
X83875000Y-59325000D02*
X82120000Y-61080000D01*
%TO.N,Net-(U18--)*%
X84500000Y-57675000D02*
X86410000Y-57675000D01*
X86410000Y-57675000D02*
X86695000Y-57960000D01*
%TO.N,Net-(R40-Pad2)*%
X71825000Y-55000000D02*
X71825000Y-54675000D01*
X73000000Y-53500000D02*
X75500000Y-53500000D01*
X71825000Y-54675000D02*
X73000000Y-53500000D01*
%TO.N,Net-(U17--)*%
X70175000Y-55000000D02*
X70175000Y-58565000D01*
X70175000Y-58565000D02*
X70120000Y-58620000D01*
X95675000Y-53000000D02*
X80040000Y-53000000D01*
X80040000Y-53000000D02*
X74500000Y-58540000D01*
%TO.N,DC_REF_OUTPUT*%
X97325000Y-53000000D02*
X110904365Y-53000000D01*
X110904365Y-53000000D02*
X117044365Y-59140000D01*
X117044365Y-59140000D02*
X117640000Y-59140000D01*
X117640000Y-59140000D02*
X119100000Y-60600000D01*
X119100000Y-60600000D02*
X119100000Y-75940000D01*
X119100000Y-75940000D02*
X118000000Y-77040000D01*
%TO.N,GND*%
X87000000Y-105000000D02*
X88900000Y-105000000D01*
X85000000Y-73000000D02*
X87000000Y-73000000D01*
X87000000Y-105000000D02*
X87000000Y-73000000D01*
X85000000Y-105000000D02*
X87000000Y-105000000D01*
X85000000Y-97000000D02*
X88900000Y-97000000D01*
X84800000Y-89000000D02*
X88700000Y-89000000D01*
X85000000Y-81000000D02*
X88700000Y-81000000D01*
X87000000Y-73000000D02*
X88700000Y-73000000D01*
%TO.N,+12V*%
X124230000Y-58625000D02*
X124230000Y-57500000D01*
X117500000Y-58040000D02*
X123690000Y-58040000D01*
X123690000Y-58040000D02*
X124230000Y-57500000D01*
%TO.N,/Sine_Wave_Generator/Left channel*%
X70120000Y-71000000D02*
X70120000Y-71022944D01*
X70120000Y-71000000D02*
X71097056Y-71000000D01*
X75500000Y-75402944D02*
X75500000Y-78000000D01*
X71097056Y-71000000D02*
X75500000Y-75402944D01*
%TO.N,-12V*%
X172590000Y-98045000D02*
X169860000Y-100775000D01*
X139275000Y-100775000D02*
X134500000Y-96000000D01*
X134500000Y-96000000D02*
X132730000Y-96000000D01*
X169860000Y-100775000D02*
X139275000Y-100775000D01*
%TO.N,+12V*%
X130730000Y-93500000D02*
X128955000Y-93500000D01*
X128955000Y-93500000D02*
X124730000Y-89275000D01*
%TO.N,-12V*%
X132730000Y-96000000D02*
X136955000Y-91775000D01*
X136955000Y-91775000D02*
X143730000Y-91775000D01*
X123730000Y-74160000D02*
X123730000Y-94000000D01*
X127312352Y-96000000D02*
X125730000Y-96000000D01*
X125730000Y-96000000D02*
X123730000Y-94000000D01*
%TO.N,+12V*%
X143730000Y-96275000D02*
X142775000Y-96275000D01*
X142775000Y-96275000D02*
X142500000Y-96000000D01*
X142500000Y-96000000D02*
X138730000Y-96000000D01*
%TO.N,/Sine_Wave_Generator/Left channel*%
X70120000Y-60270000D02*
X70120000Y-71000000D01*
%TO.N,Net-(U17--)*%
X74500000Y-58540000D02*
X70200000Y-58540000D01*
X70200000Y-58540000D02*
X70120000Y-58620000D01*
%TO.N,+12V*%
X124730000Y-85275000D02*
X125730000Y-84275000D01*
X177730000Y-83275000D02*
X181350000Y-86895000D01*
X128275000Y-53275000D02*
X129960000Y-54960000D01*
X165332500Y-94252500D02*
X173752500Y-94252500D01*
X143730000Y-96275000D02*
X143730000Y-98275000D01*
X131315000Y-79275000D02*
X132500000Y-78090000D01*
X123905000Y-71100000D02*
X123905000Y-66275000D01*
X124230000Y-57500000D02*
X124230000Y-54775000D01*
X174770000Y-83275000D02*
X174730000Y-83315000D01*
X143730000Y-98275000D02*
X145230000Y-99775000D01*
X123905000Y-66275000D02*
X123905000Y-58950000D01*
X208960000Y-60505000D02*
X204230000Y-55775000D01*
X161730000Y-99775000D02*
X163000000Y-98505000D01*
X123905000Y-58950000D02*
X124230000Y-58625000D01*
X124730000Y-89275000D02*
X124730000Y-85275000D01*
X124230000Y-54775000D02*
X125730000Y-53275000D01*
X176730000Y-91275000D02*
X176730000Y-83275000D01*
X209360000Y-60505000D02*
X208960000Y-60505000D01*
X204230000Y-55775000D02*
X197775000Y-55775000D01*
X125730000Y-53275000D02*
X128275000Y-53275000D01*
X173752500Y-94252500D02*
X176730000Y-91275000D01*
X176730000Y-83275000D02*
X174770000Y-83275000D01*
X197775000Y-55775000D02*
X193045000Y-60505000D01*
X225230000Y-54775000D02*
X225230000Y-56630000D01*
X129230000Y-79275000D02*
X131315000Y-79275000D01*
X129230000Y-79275000D02*
X125905000Y-82600000D01*
X176730000Y-83275000D02*
X177730000Y-83275000D01*
X143730000Y-96275000D02*
X145880000Y-96275000D01*
X125905000Y-82600000D02*
X125905000Y-84275000D01*
X181350000Y-86895000D02*
X182730000Y-86895000D01*
X237350000Y-58315000D02*
X235270000Y-58315000D01*
X163000000Y-98505000D02*
X163000000Y-96585000D01*
X235270000Y-58315000D02*
X230230000Y-53275000D01*
X226730000Y-53275000D02*
X225230000Y-54775000D01*
X123730000Y-71775000D02*
X123730000Y-71275000D01*
X125730000Y-84275000D02*
X125905000Y-84275000D01*
X123730000Y-71275000D02*
X123905000Y-71100000D01*
X230230000Y-53275000D02*
X226730000Y-53275000D01*
X145230000Y-99775000D02*
X161730000Y-99775000D01*
X163000000Y-96585000D02*
X165332500Y-94252500D01*
X225230000Y-56630000D02*
X223545000Y-58315000D01*
%TO.N,Net-(R7-Pad2)*%
X127555000Y-84275000D02*
X128905000Y-84275000D01*
%TO.N,GND*%
X206230000Y-95275000D02*
X207560000Y-95275000D01*
X205030000Y-93975000D02*
X208060000Y-90945000D01*
X140280000Y-66275000D02*
X144150000Y-66275000D01*
X204930000Y-93975000D02*
X203350000Y-93975000D01*
X195730000Y-93975000D02*
X195730000Y-102175000D01*
X199730000Y-93975000D02*
X203350000Y-93975000D01*
X144150000Y-66275000D02*
X146110000Y-64315000D01*
X139555000Y-84275000D02*
X139555000Y-80450000D01*
X142110000Y-77895000D02*
X146110000Y-77895000D01*
X199730000Y-90355000D02*
X199730000Y-93975000D01*
X208060000Y-90945000D02*
X208060000Y-88775000D01*
X205030000Y-93975000D02*
X204930000Y-93975000D01*
X226730000Y-54275000D02*
X226730000Y-55450000D01*
X139555000Y-80450000D02*
X142110000Y-77895000D01*
X195730000Y-86355000D02*
X199730000Y-90355000D01*
X195730000Y-93975000D02*
X199730000Y-93975000D01*
X195730000Y-102175000D02*
X194170000Y-103735000D01*
X204930000Y-93975000D02*
X206230000Y-95275000D01*
%TO.N,Net-(U9--)*%
X230060000Y-103775000D02*
X230060000Y-103945000D01*
X209210000Y-95275000D02*
X210230000Y-95275000D01*
X230060000Y-103945000D02*
X229230000Y-104775000D01*
%TO.N,Net-(U3--)*%
X180210000Y-63275000D02*
X181230000Y-63275000D01*
X181230000Y-63275000D02*
X181230000Y-59275000D01*
X181230000Y-59275000D02*
X180210000Y-59275000D01*
%TO.N,Net-(R3-Pad2)*%
X190050000Y-70465000D02*
X192540000Y-70465000D01*
X196730000Y-66275000D02*
X196720000Y-66265000D01*
X194730000Y-68275000D02*
X196730000Y-66275000D01*
X192540000Y-70465000D02*
X194730000Y-68275000D01*
X196720000Y-66265000D02*
X196720000Y-60775000D01*
%TO.N,Net-(U13--)*%
X225105000Y-59295000D02*
X226730000Y-59295000D01*
X221005000Y-58315000D02*
X223545000Y-60855000D01*
X223545000Y-60855000D02*
X225105000Y-59295000D01*
X215925000Y-58315000D02*
X221005000Y-58315000D01*
%TO.N,-12V*%
X180460000Y-98045000D02*
X183230000Y-95275000D01*
X144230000Y-88775000D02*
X157730000Y-88775000D01*
X127420000Y-70470000D02*
X123730000Y-74160000D01*
X183230000Y-95275000D02*
X183230000Y-94395000D01*
X143730000Y-91775000D02*
X143730000Y-89275000D01*
X172590000Y-98045000D02*
X180460000Y-98045000D01*
X157730000Y-88775000D02*
X157920000Y-88965000D01*
X143730000Y-89275000D02*
X144230000Y-88775000D01*
X146060000Y-91775000D02*
X143730000Y-91775000D01*
%TO.N,Net-(R8-Pad2)*%
X130555000Y-84275000D02*
X131905000Y-84275000D01*
%TO.N,Net-(R10-Pad1)*%
X133555000Y-84275000D02*
X134905000Y-84275000D01*
%TO.N,Net-(U12--)*%
X222310000Y-74855000D02*
X220230000Y-72775000D01*
X223730000Y-74855000D02*
X222310000Y-74855000D01*
X223810000Y-74775000D02*
X228230000Y-74775000D01*
X223730000Y-74855000D02*
X223810000Y-74775000D01*
X220230000Y-72775000D02*
X216570000Y-72775000D01*
X228230000Y-74775000D02*
X228555000Y-74450000D01*
X216570000Y-72775000D02*
X216110000Y-72315000D01*
X228555000Y-74450000D02*
X228555000Y-73275000D01*
%TO.N,5V*%
X233230000Y-90275000D02*
X233230000Y-91950000D01*
X164230000Y-61815000D02*
X167770000Y-61815000D01*
X173230000Y-73275000D02*
X173230000Y-64275000D01*
X170230000Y-64275000D02*
X170230000Y-73275000D01*
X173230000Y-64275000D02*
X174230000Y-63275000D01*
X170230000Y-73275000D02*
X171230000Y-74275000D01*
X177730000Y-63275000D02*
X178560000Y-63275000D01*
X171230000Y-74275000D02*
X172230000Y-74275000D01*
X172230000Y-74275000D02*
X173230000Y-73275000D01*
X174230000Y-63275000D02*
X177730000Y-63275000D01*
X167770000Y-61815000D02*
X170230000Y-64275000D01*
%TO.N,Net-(U10--)*%
X214730000Y-87700000D02*
X214730000Y-89275000D01*
X215230000Y-89775000D02*
X217730000Y-89775000D01*
X217730000Y-89775000D02*
X223555000Y-95600000D01*
X233230000Y-94275000D02*
X231730000Y-95775000D01*
X223555000Y-95600000D02*
X225885000Y-95600000D01*
X231730000Y-95775000D02*
X226060000Y-95775000D01*
X226060000Y-95775000D02*
X225885000Y-95600000D01*
X216425000Y-86005000D02*
X214730000Y-87700000D01*
X214730000Y-89275000D02*
X215230000Y-89775000D01*
X233230000Y-93600000D02*
X233230000Y-94275000D01*
%TO.N,Net-(R36-Pad2)*%
X236150000Y-60855000D02*
X237350000Y-60855000D01*
X235230000Y-61775000D02*
X236150000Y-60855000D01*
X235230000Y-65775000D02*
X235230000Y-61775000D01*
X232235000Y-68275000D02*
X232235000Y-70460000D01*
X232730000Y-68275000D02*
X235230000Y-65775000D01*
X232235000Y-68275000D02*
X232730000Y-68275000D01*
X233230000Y-70950000D02*
X232725000Y-70950000D01*
X232725000Y-70950000D02*
X232235000Y-70460000D01*
%TO.N,/Square_Wave/OUTPUT*%
X233230000Y-72600000D02*
X233230000Y-75275000D01*
%TO.N,Net-(R28-Pad2)*%
X229730000Y-101775000D02*
X231205000Y-101775000D01*
X231710000Y-102280000D02*
X231205000Y-101775000D01*
X229560000Y-98605000D02*
X229560000Y-97275000D01*
X225545000Y-103545000D02*
X227960000Y-103545000D01*
X231710000Y-103775000D02*
X231710000Y-102280000D01*
X231205000Y-100250000D02*
X229560000Y-98605000D01*
X227960000Y-103545000D02*
X229730000Y-101775000D01*
X231205000Y-101775000D02*
X231205000Y-100250000D01*
%TO.N,Net-(Q1-G)*%
X160460000Y-96585000D02*
X160460000Y-95545000D01*
X174730000Y-85855000D02*
X172590000Y-87995000D01*
X172590000Y-87995000D02*
X172590000Y-92965000D01*
X160460000Y-95545000D02*
X163040000Y-92965000D01*
X163040000Y-92965000D02*
X172590000Y-92965000D01*
%TO.N,Net-(Q1-S)*%
X172590000Y-95505000D02*
X173500000Y-95505000D01*
X182730000Y-83775000D02*
X179730000Y-80775000D01*
X162730000Y-81775000D02*
X163230000Y-81275000D01*
X179730000Y-80775000D02*
X174730000Y-80775000D01*
X174230000Y-81275000D02*
X174730000Y-80775000D01*
X184730000Y-91775000D02*
X184730000Y-86275000D01*
X183800000Y-85345000D02*
X184730000Y-86275000D01*
X163230000Y-81275000D02*
X174230000Y-81275000D01*
X176160000Y-92845000D02*
X183230000Y-92845000D01*
X183660000Y-92845000D02*
X184730000Y-91775000D01*
X182730000Y-85345000D02*
X182730000Y-83775000D01*
X173500000Y-95505000D02*
X176160000Y-92845000D01*
X182730000Y-85345000D02*
X183800000Y-85345000D01*
X183230000Y-92845000D02*
X183660000Y-92845000D01*
X162730000Y-84275000D02*
X162730000Y-81775000D01*
%TO.N,/GPIO20*%
X210230000Y-52775000D02*
X213730000Y-56275000D01*
X164230000Y-59275000D02*
X165730000Y-59275000D01*
X203885000Y-101070000D02*
X204090000Y-101275000D01*
X208230000Y-101275000D02*
X204090000Y-101275000D01*
X172230000Y-52775000D02*
X210230000Y-52775000D01*
X165730000Y-59275000D02*
X172230000Y-52775000D01*
X213730000Y-56275000D02*
X213730000Y-95775000D01*
X204090000Y-101275000D02*
X204090000Y-103275000D01*
X203885000Y-100255000D02*
X203885000Y-101070000D01*
X213730000Y-95775000D02*
X208230000Y-101275000D01*
%TO.N,3.3V*%
X153730000Y-56695000D02*
X159170000Y-56695000D01*
X159170000Y-56695000D02*
X159250000Y-56775000D01*
X157730000Y-67275000D02*
X157730000Y-70275000D01*
X159410000Y-70275000D02*
X159905000Y-70770000D01*
X203885000Y-98605000D02*
X203885000Y-97120000D01*
X153810000Y-56775000D02*
X153730000Y-56695000D01*
X159410000Y-70275000D02*
X157730000Y-70275000D01*
X203885000Y-97120000D02*
X204230000Y-96775000D01*
X157730000Y-70275000D02*
X153730000Y-70275000D01*
X159905000Y-70770000D02*
X159905000Y-71275000D01*
%TO.N,Net-(R14-Pad2)*%
X132780000Y-66275000D02*
X135130000Y-66275000D01*
%TO.N,Net-(U6-+)*%
X136780000Y-66275000D02*
X133085000Y-62580000D01*
X133085000Y-62580000D02*
X132500000Y-62580000D01*
X136780000Y-66275000D02*
X138630000Y-66275000D01*
%TO.N,Net-(D2-K)*%
X148910000Y-90575000D02*
X147710000Y-91775000D01*
X151885000Y-90575000D02*
X148910000Y-90575000D01*
%TO.N,/GPIO11*%
X186730000Y-90275000D02*
X186730000Y-99775000D01*
X195730000Y-81275000D02*
X186730000Y-90275000D01*
%TO.N,/GPIO10*%
X192230000Y-92275000D02*
X190230000Y-94275000D01*
X195730000Y-83815000D02*
X195190000Y-83815000D01*
X195190000Y-83815000D02*
X192230000Y-86775000D01*
X192230000Y-86775000D02*
X192230000Y-92275000D01*
%TO.N,Net-(U1A--)*%
X156310000Y-64355000D02*
X153730000Y-61775000D01*
X164230000Y-64355000D02*
X156310000Y-64355000D01*
%TO.N,Net-(U8--)*%
X161080000Y-87045000D02*
X161080000Y-84275000D01*
X163000000Y-88965000D02*
X161080000Y-87045000D01*
%TO.N,Net-(R12-Pad2)*%
X125555000Y-66275000D02*
X127130000Y-66275000D01*
%TO.N,Net-(R13-Pad2)*%
X128780000Y-66275000D02*
X131130000Y-66275000D01*
%TO.N,Net-(D1-A)*%
X151850000Y-96275000D02*
X152050000Y-96475000D01*
X147530000Y-96275000D02*
X151850000Y-96275000D01*
%TO.N,/Voltmeter/VOLTAGE_INPUT*%
X179230000Y-54775000D02*
X177230000Y-54775000D01*
X178560000Y-59275000D02*
X176730000Y-59275000D01*
X176230000Y-58775000D02*
X176730000Y-59275000D01*
X176230000Y-55775000D02*
X176230000Y-58775000D01*
X177230000Y-54775000D02*
X176230000Y-55775000D01*
%TO.N,Net-(U5-+)*%
X136555000Y-81160635D02*
X136555000Y-84275000D01*
X133600000Y-78205635D02*
X136555000Y-81160635D01*
X136555000Y-84275000D02*
X137905000Y-84275000D01*
X133600000Y-74110000D02*
X133600000Y-78205635D01*
X129960000Y-70470000D02*
X133600000Y-74110000D01*
%TO.N,Net-(U14-+)*%
X228230000Y-56775000D02*
X227905000Y-57100000D01*
X228230000Y-56775000D02*
X228230000Y-54275000D01*
X227905000Y-57100000D02*
X226730000Y-57100000D01*
X231230000Y-55275000D02*
X231230000Y-59355000D01*
X228730000Y-53775000D02*
X229730000Y-53775000D01*
X225730000Y-73275000D02*
X226905000Y-73275000D01*
X229730000Y-53775000D02*
X231230000Y-55275000D01*
X228230000Y-54275000D02*
X228730000Y-53775000D01*
X231230000Y-59355000D02*
X229730000Y-60855000D01*
%TO.N,Net-(D1-K)*%
X152230000Y-93275000D02*
X151885000Y-92930000D01*
X151885000Y-92930000D02*
X151885000Y-91975000D01*
X160460000Y-88965000D02*
X160460000Y-92045000D01*
X152230000Y-94895000D02*
X152050000Y-95075000D01*
X152230000Y-93275000D02*
X152230000Y-94895000D01*
X160460000Y-92045000D02*
X159230000Y-93275000D01*
X159230000Y-93275000D02*
X152230000Y-93275000D01*
%TO.N,DC_REF_OUTPUT*%
X225885000Y-90385000D02*
X224045000Y-88545000D01*
X225885000Y-91275000D02*
X225885000Y-90385000D01*
X225885000Y-91275000D02*
X225885000Y-93950000D01*
%TO.N,Net-(U1B-+)*%
X161555000Y-71275000D02*
X163530000Y-71275000D01*
X163530000Y-71275000D02*
X164230000Y-71975000D01*
%TO.N,Net-(U14--)*%
X226730000Y-60945000D02*
X227100000Y-60945000D01*
X227100000Y-60945000D02*
X229730000Y-58315000D01*
X230230000Y-68275000D02*
X230585000Y-68275000D01*
X226730000Y-64775000D02*
X230230000Y-68275000D01*
X226730000Y-64775000D02*
X226730000Y-60945000D01*
%TO.N,/GPIO7*%
X185730000Y-83775000D02*
X185730000Y-100775000D01*
X190730000Y-78775000D02*
X185730000Y-83775000D01*
X195690000Y-78775000D02*
X190730000Y-78775000D01*
X195730000Y-78735000D02*
X195690000Y-78775000D01*
%TO.N,Net-(U1B--)*%
X164730000Y-75775000D02*
X154150000Y-75775000D01*
X154150000Y-75775000D02*
X153730000Y-75355000D01*
X164230000Y-69435000D02*
X165730000Y-70935000D01*
X165730000Y-74775000D02*
X164730000Y-75775000D01*
X165730000Y-70935000D02*
X165730000Y-74775000D01*
%TO.N,Net-(U4--)*%
X198230000Y-67775000D02*
X198230000Y-60915000D01*
X197595000Y-60000000D02*
X198370000Y-60775000D01*
X194730000Y-66775000D02*
X194730000Y-61577352D01*
X201230000Y-70775000D02*
X204875000Y-70775000D01*
X185425000Y-60505000D02*
X191695000Y-66775000D01*
X201230000Y-70775000D02*
X198230000Y-67775000D01*
X198230000Y-60915000D02*
X198370000Y-60775000D01*
X194730000Y-61577352D02*
X196307352Y-60000000D01*
X191695000Y-66775000D02*
X194730000Y-66775000D01*
X196307352Y-60000000D02*
X197595000Y-60000000D01*
%TO.N,Net-(U1A-+)*%
X190730000Y-60730000D02*
X193045000Y-63045000D01*
X169230000Y-67775000D02*
X169230000Y-73775000D01*
X209730000Y-70775000D02*
X211230000Y-69275000D01*
X211230000Y-69275000D02*
X211230000Y-56275000D01*
X193230000Y-54775000D02*
X190730000Y-57275000D01*
X206525000Y-73980000D02*
X206525000Y-70775000D01*
X170230000Y-74775000D02*
X205730000Y-74775000D01*
X169230000Y-73775000D02*
X170230000Y-74775000D01*
X205730000Y-74775000D02*
X206525000Y-73980000D01*
X190730000Y-57275000D02*
X190730000Y-60730000D01*
X209730000Y-54775000D02*
X193230000Y-54775000D01*
X206525000Y-70775000D02*
X209730000Y-70775000D01*
X211230000Y-56275000D02*
X209730000Y-54775000D01*
X164230000Y-66895000D02*
X168350000Y-66895000D01*
X168350000Y-66895000D02*
X169230000Y-67775000D01*
%TO.N,Net-(U10-+)*%
X234230000Y-94775000D02*
X234230000Y-89275000D01*
X234230000Y-89275000D02*
X232230000Y-87275000D01*
X231730000Y-97275000D02*
X231210000Y-97275000D01*
X210230000Y-90775000D02*
X209710000Y-90255000D01*
X217695000Y-87275000D02*
X216425000Y-88545000D01*
X231730000Y-97275000D02*
X234230000Y-94775000D01*
X232230000Y-87275000D02*
X217695000Y-87275000D01*
X209710000Y-90255000D02*
X209710000Y-88775000D01*
%TO.N,/GPIO16*%
X164190000Y-56775000D02*
X164230000Y-56735000D01*
X160900000Y-56775000D02*
X164190000Y-56775000D01*
%TO.N,/GPIO12*%
X197730000Y-97775000D02*
X197730000Y-102715000D01*
X197730000Y-102715000D02*
X196710000Y-103735000D01*
%TO.N,unconnected-(J1-Pad2)*%
X158610000Y-103735000D02*
X161150000Y-103735000D01*
%TO.N,Net-(U3--)*%
X181230000Y-63275000D02*
X182230000Y-63275000D01*
X182230000Y-63275000D02*
X183730000Y-64775000D01*
X183730000Y-64775000D02*
X183730000Y-67275000D01*
X183730000Y-67275000D02*
X186920000Y-70465000D01*
X186920000Y-70465000D02*
X188400000Y-70465000D01*
%TD*%
M02*
