M48
; DRILL file KiCad 10.0.0 date 2026-04-22T23:56:38
; FORMAT={-:-/ absolute / metric / decimal}
; #@! TF.CreationDate,2026-04-22T23:56:38-04:00
; #@! TF.GenerationSoftware,Kicad,Pcbnew,10.0.0
; #@! TF.FileFunction,Plated,1,4,PTH
FMAT,2
METRIC
; #@! TA.AperFunction,Plated,PTH,ViaDrill
T1C0.300
; #@! TA.AperFunction,Plated,PTH,ComponentDrill
T2C0.500
; #@! TA.AperFunction,Plated,PTH,ComponentDrill
T3C0.800
; #@! TA.AperFunction,Plated,PTH,ComponentDrill
T4C1.000
; #@! TA.AperFunction,Plated,PTH,ComponentDrill
T5C1.100
%
G90
G05
T1
X75.5Y-53.5
X79.0Y-75.0
X123.73Y-71.775
X125.0Y-107.0
X130.73Y-93.5
X132.0Y-107.5
X137.825Y-106.325
X145.0Y-106.5
X177.73Y-63.275
X181.23Y-59.275
X185.73Y-100.775
X186.73Y-99.775
X190.23Y-90.775
X190.23Y-94.275
X194.73Y-68.275
X197.73Y-97.775
X203.73Y-75.775
X204.23Y-96.775
X209.23Y-73.275
X210.23Y-90.775
X210.23Y-95.275
X211.23Y-77.775
X211.23Y-91.775
X211.23Y-105.775
X212.23Y-93.275
X225.73Y-73.275
X225.885Y-91.275
X226.73Y-54.275
X229.23Y-104.775
X233.23Y-90.275
T2
X114.5Y-88.5
X157.73Y-66.775
X179.23Y-54.775
X185.0Y-71.0
X233.23Y-75.275
X233.23Y-81.275
T3
X74.5Y-56.0
X74.5Y-58.54
X74.5Y-61.08
X74.5Y-63.62
X82.12Y-56.0
X82.12Y-58.54
X82.12Y-61.08
X82.12Y-63.62
X86.695Y-55.42
X86.695Y-57.96
X86.695Y-60.5
X86.695Y-63.04
X94.315Y-55.42
X94.315Y-57.96
X94.315Y-60.5
X94.315Y-63.04
X96.88Y-73.5
X96.88Y-76.04
X96.88Y-78.58
X96.88Y-81.12
X98.38Y-55.46
X98.38Y-58.0
X98.38Y-60.54
X98.38Y-63.08
X104.5Y-73.5
X104.5Y-76.04
X104.5Y-78.58
X104.5Y-81.12
X106.0Y-55.46
X106.0Y-58.0
X106.0Y-60.54
X106.0Y-63.08
X109.88Y-55.5
X109.88Y-58.04
X109.88Y-60.58
X109.88Y-63.12
X110.38Y-71.96
X110.38Y-74.5
X110.38Y-77.04
X110.38Y-79.58
X110.38Y-94.0
X110.38Y-96.54
X110.38Y-99.08
X110.38Y-101.62
X117.5Y-55.5
X117.5Y-58.04
X117.5Y-60.58
X117.5Y-63.12
X118.0Y-71.96
X118.0Y-74.5
X118.0Y-77.04
X118.0Y-79.58
X118.0Y-94.0
X118.0Y-96.54
X118.0Y-99.08
X118.0Y-101.62
X127.42Y-54.96
X127.42Y-62.58
X127.42Y-70.47
X127.42Y-78.09
X129.96Y-54.96
X129.96Y-62.58
X129.96Y-70.47
X129.96Y-78.09
X132.5Y-54.96
X132.5Y-62.58
X132.5Y-70.47
X132.5Y-78.09
X135.04Y-54.96
X135.04Y-62.58
X135.04Y-70.47
X135.04Y-78.09
X146.11Y-56.695
X146.11Y-59.235
X146.11Y-61.775
X146.11Y-64.315
X146.11Y-70.275
X146.11Y-72.815
X146.11Y-75.355
X146.11Y-77.895
X153.73Y-56.695
X153.73Y-59.235
X153.73Y-61.775
X153.73Y-64.315
X153.73Y-70.275
X153.73Y-72.815
X153.73Y-75.355
X153.73Y-77.895
X157.92Y-88.965
X157.92Y-96.585
X160.46Y-88.965
X160.46Y-96.585
X163.0Y-88.965
X163.0Y-96.585
X164.23Y-56.735
X164.23Y-59.275
X164.23Y-61.815
X164.23Y-64.355
X164.23Y-66.895
X164.23Y-69.435
X164.23Y-71.975
X165.54Y-88.965
X165.54Y-96.585
X171.85Y-56.735
X171.85Y-59.275
X171.85Y-61.815
X171.85Y-64.355
X171.85Y-66.895
X171.85Y-69.435
X171.85Y-71.975
X185.425Y-57.965
X185.425Y-60.505
X185.425Y-63.045
X185.425Y-65.585
X193.045Y-57.965
X193.045Y-60.505
X193.045Y-63.045
X193.045Y-65.585
X195.73Y-78.735
X195.73Y-81.275
X195.73Y-83.815
X195.73Y-86.355
X195.73Y-88.895
X195.73Y-91.435
X195.73Y-93.975
X201.74Y-57.965
X201.74Y-60.505
X201.74Y-63.045
X201.74Y-65.585
X203.35Y-78.735
X203.35Y-81.275
X203.35Y-83.815
X203.35Y-86.355
X203.35Y-88.895
X203.35Y-91.435
X203.35Y-93.975
X209.36Y-57.965
X209.36Y-60.505
X209.36Y-63.045
X209.36Y-65.585
X215.925Y-55.775
X215.925Y-58.315
X215.925Y-60.855
X215.925Y-63.395
X216.11Y-69.775
X216.11Y-72.315
X216.11Y-74.855
X216.11Y-77.395
X216.425Y-83.465
X216.425Y-86.005
X216.425Y-88.545
X216.425Y-91.085
X217.925Y-98.465
X217.925Y-101.005
X217.925Y-103.545
X217.925Y-106.085
X223.545Y-55.775
X223.545Y-58.315
X223.545Y-60.855
X223.545Y-63.395
X223.73Y-69.775
X223.73Y-72.315
X223.73Y-74.855
X223.73Y-77.395
X224.045Y-83.465
X224.045Y-86.005
X224.045Y-88.545
X224.045Y-91.085
X225.545Y-98.465
X225.545Y-101.005
X225.545Y-103.545
X225.545Y-106.085
X229.73Y-55.775
X229.73Y-58.315
X229.73Y-60.855
X229.73Y-63.395
X237.35Y-55.775
X237.35Y-58.315
X237.35Y-60.855
X237.35Y-63.395
T4
X158.61Y-103.735
X158.61Y-106.275
X161.15Y-103.735
X161.15Y-106.275
X163.69Y-103.735
X163.69Y-106.275
X166.23Y-103.735
X166.23Y-106.275
X168.77Y-103.735
X168.77Y-106.275
X171.31Y-103.735
X171.31Y-106.275
X173.85Y-103.735
X173.85Y-106.275
X176.39Y-103.735
X176.39Y-106.275
X178.93Y-103.735
X178.93Y-106.275
X181.47Y-103.735
X181.47Y-106.275
X184.01Y-103.735
X184.01Y-106.275
X186.55Y-103.735
X186.55Y-106.275
X189.09Y-103.735
X189.09Y-106.275
X191.63Y-103.735
X191.63Y-106.275
X194.17Y-103.735
X194.17Y-106.275
X196.71Y-103.735
X196.71Y-106.275
X199.25Y-103.735
X199.25Y-106.275
X201.79Y-103.735
X201.79Y-106.275
X204.33Y-103.735
X204.33Y-106.275
X206.87Y-103.735
X206.87Y-106.275
T5
X172.59Y-92.965
X172.59Y-95.505
X172.59Y-98.045
X174.73Y-80.775
X174.73Y-83.315
X174.73Y-85.855
T4
G00X73.0Y-75.6
M15
G01X74.0Y-75.6
M16
G05
G00X75.0Y-78.0
M15
G01X76.0Y-78.0
M16
G05
G00X75.0Y-83.5
M15
G01X76.0Y-83.5
M16
G05
G00X132.73Y-95.0
M15
G01X132.73Y-97.0
M16
G05
G00X134.73Y-100.7
M15
G01X136.73Y-100.7
M16
G05
G00X138.73Y-95.0
M15
G01X138.73Y-97.0
M16
G05
M30
